<?xml version="1.0" encoding="utf-8"?>
<!-- Generator: Adobe Illustrator 22.0.0, SVG Export Plug-In . SVG Version: 6.00 Build 0)  -->
<svg version="1.1" id="Layer_1" xmlns="http://www.w3.org/2000/svg" xmlns:xlink="http://www.w3.org/1999/xlink" x="0px" y="0px"
	 viewBox="0 0 182 38.8" style="enable-background:new 0 0 182 38.8;" xml:space="preserve">
<style type="text/css">
	.st0{fill-rule:evenodd;clip-rule:evenodd;fill:#0073FF;}
	.st1{fill-rule:evenodd;clip-rule:evenodd;fill:#08A8F7;}
	.st2{fill:#0073FF;}
</style>
<circle class="st0" cx="5.7" cy="33.4" r="4.6"/>
<circle class="st1" cx="5.7" cy="19.3" r="4.6"/>
<circle class="st0" cx="19.4" cy="19.3" r="4.6"/>
<circle class="st1" cx="5.7" cy="5.2" r="4.6"/>
<circle class="st1" cx="19.4" cy="5.2" r="4.6"/>
<circle class="st0" cx="33.4" cy="5.2" r="4.6"/>
<g>
	<path class="st2" d="M64.6,11.3H53.2c-0.6,0-1.1,0.2-1.5,0.5s-0.5,0.8-0.5,1.5v18.9c0,0.6,0.2,1.1,0.6,1.5c0.4,0.4,0.9,0.6,1.5,0.6
		c0.6,0,1.1-0.2,1.5-0.6c0.4-0.4,0.5-0.9,0.5-1.5v-8h8.6c1.3,0,2-0.5,2-1.6c0-1.1-0.7-1.7-2-1.7h-8.6v-6.2h9.2c1.3,0,2-0.5,2-1.6
		C66.5,11.8,65.9,11.3,64.6,11.3z"/>
	<g>
		<polygon class="st2" points="82.7,25.5 78.5,15.9 82.7,25.5 		"/>
		<polygon class="st2" points="74.2,25.5 74.2,25.5 78.5,15.9 		"/>
		<path class="st2" d="M86.8,33.9c0.3,0.2,0.6,0.3,1,0.3c0.5,0,1-0.2,1.4-0.5c0.4-0.3,0.6-0.8,0.6-1.3c0-0.3-0.1-0.6-0.2-0.8
			l-8.9-19.1c-0.2-0.4-0.5-0.8-0.9-1c-0.4-0.2-0.8-0.3-1.3-0.3c-0.5,0-0.9,0.1-1.3,0.3c-0.4,0.2-0.7,0.6-0.9,1l-8.9,19.1
			c-0.1,0.3-0.2,0.6-0.2,0.8c0,0.5,0.2,0.9,0.6,1.3c0.4,0.3,0.9,0.5,1.4,0.5c0.4,0,0.7-0.1,1-0.3c0.3-0.2,0.5-0.5,0.7-0.9l1.7-3.9
			l1.6-3.6h0l4.3-9.6l4.3,9.6h0l1.5,3.3l1.9,4.3C86.2,33.4,86.5,33.7,86.8,33.9z"/>
	</g>
	<path class="st2" d="M103.8,14.4c1,0,1.8,0.1,2.6,0.4c0.8,0.3,1.7,0.7,2.6,1.4c0.5,0.3,0.9,0.5,1.3,0.5c0.4,0,0.7-0.2,0.9-0.5
		c0.3-0.3,0.4-0.7,0.4-1.2c0-0.3-0.1-0.6-0.2-0.9c-0.1-0.2-0.3-0.5-0.6-0.7c-1-0.8-2.1-1.4-3.3-1.8c-1.2-0.4-2.6-0.6-4-0.6
		c-2.2,0-4.1,0.5-5.8,1.4c-1.6,0.9-2.9,2.3-3.8,4c-0.9,1.8-1.3,3.8-1.3,6.2c0,2.4,0.4,4.4,1.3,6.2c0.9,1.8,2.1,3.1,3.8,4.1
		c1.6,0.9,3.6,1.4,5.8,1.4c1.4,0,2.8-0.2,4-0.6c1.2-0.4,2.4-1,3.3-1.8c0.3-0.2,0.5-0.4,0.6-0.7c0.1-0.2,0.2-0.5,0.2-0.9
		c0-0.5-0.1-0.9-0.4-1.2c-0.3-0.3-0.6-0.5-0.9-0.5c-0.2,0-0.5,0-0.7,0.1s-0.4,0.2-0.6,0.3c-1,0.7-1.9,1.1-2.7,1.4
		c-0.8,0.3-1.6,0.4-2.6,0.4c-2.2,0-3.9-0.7-5.1-2.1c-1.2-1.4-1.7-3.5-1.7-6.2c0-2.7,0.6-4.8,1.7-6.2
		C99.9,15.1,101.5,14.4,103.8,14.4z"/>
	<path class="st2" d="M131.7,11.3h-15.9c-1.3,0-1.9,0.6-1.9,1.7c0,1.1,0.6,1.7,1.9,1.7h5.9v17.4c0,0.6,0.2,1.1,0.6,1.5
		c0.4,0.4,0.9,0.6,1.5,0.6c0.6,0,1.1-0.2,1.5-0.6c0.4-0.4,0.6-0.9,0.6-1.5V14.7h5.9c1.3,0,1.9-0.6,1.9-1.7
		C133.6,11.8,132.9,11.3,131.7,11.3z"/>
	<path class="st2" d="M151.9,12.4c-1.6-0.9-3.5-1.4-5.8-1.4c-2.2,0-4.1,0.5-5.8,1.4c-1.6,0.9-2.9,2.3-3.8,4
		c-0.9,1.8-1.3,3.8-1.3,6.2c0,2.4,0.4,4.4,1.3,6.2c0.9,1.8,2.1,3.1,3.8,4.1c1.6,0.9,3.5,1.4,5.8,1.4c2.2,0,4.1-0.5,5.7-1.4
		c1.6-0.9,2.9-2.3,3.8-4.1c0.9-1.8,1.3-3.8,1.3-6.2c0-2.4-0.4-4.4-1.3-6.2C154.7,14.7,153.5,13.3,151.9,12.4z M151,28.8
		c-1.2,1.4-2.8,2.2-4.9,2.2c-2.1,0-3.7-0.7-4.9-2.2c-1.2-1.4-1.8-3.5-1.8-6.2c0-2.7,0.6-4.7,1.8-6.2c1.2-1.4,2.8-2.1,4.9-2.1
		c2.1,0,3.7,0.7,4.9,2.1c1.2,1.4,1.8,3.5,1.8,6.2C152.8,25.3,152.2,27.4,151,28.8z"/>
	<path class="st2" d="M180.6,31.4l-2.9-4.5c-0.5-0.7-0.9-1.2-1.4-1.6c-0.5-0.4-1-0.7-1.6-0.8c1.8-0.3,3.2-1,4.2-2.2
		c1-1.1,1.5-2.6,1.5-4.3c0-2.2-0.7-3.8-2-5c-1.3-1.2-3.3-1.7-5.9-1.7h-8.1c-0.6,0-1.1,0.2-1.5,0.5c-0.4,0.3-0.5,0.8-0.5,1.5v18.9
		c0,0.6,0.2,1.2,0.6,1.5c0.4,0.4,0.9,0.6,1.5,0.6c0.6,0,1.1-0.2,1.5-0.6c0.4-0.4,0.5-0.9,0.5-1.5v-7.2h3.2c0.8,0,1.4,0.1,1.9,0.4
		c0.5,0.3,0.9,0.8,1.4,1.5l4.3,6.5c0.2,0.3,0.5,0.6,0.8,0.7c0.3,0.2,0.6,0.2,1,0.2c0.5,0,1-0.2,1.4-0.5c0.4-0.3,0.6-0.7,0.6-1.2
		C181,32.2,180.8,31.8,180.6,31.4z M171.9,21.7h-5.4v-7.2h5.4c1.6,0,2.7,0.3,3.5,0.9c0.7,0.6,1.1,1.5,1.1,2.7c0,1.2-0.4,2.1-1.1,2.7
		C174.6,21.4,173.5,21.7,171.9,21.7z"/>
</g>
</svg>
