<?xml version="1.0" encoding="utf-8"?>
<!-- Generator: Adobe Illustrator 22.0.0, SVG Export Plug-In . SVG Version: 6.00 Build 0)  -->
<svg version="1.1" id="Layer_1" xmlns="http://www.w3.org/2000/svg" xmlns:xlink="http://www.w3.org/1999/xlink" x="0px" y="0px"
	 viewBox="0 0 907.9 1093.1" style="enable-background:new 0 0 907.9 1093.1;" xml:space="preserve">
<style type="text/css">
	.st0{fill:none;stroke:#CDE9FD;stroke-miterlimit:10;}
	.st1{fill:none;stroke:#CDE9FD;stroke-miterlimit:10;stroke-dasharray:6.0208,3.0104;}
	.st2{fill:none;stroke:#CDE9FD;stroke-miterlimit:10;stroke-dasharray:6,3;}
</style>
<g>
	<g>
		<path class="st0" d="M281,7.4c0,0,0,1.1,0.2,3"/>
		<path class="st1" d="M281.7,13.4c2.3,12.9,13,42,61.3,42c62,0,480,0,480,0s73.8-0.5,77.8,67.5"/>
		<path class="st0" d="M900.9,124.4c0,1,0.1,2,0.1,3"/>
	</g>
</g>
<path class="st2" d="M715.3,272.4H281c0,0-41.7-2.7-41.7,44s-39.3,57.3-75.3,52c0,0-98.7-16.7-110,68"/>
<path class="st2" d="M8,665.4c0,0-19,105,87,102c0,0,39,1,34,61v189c0,0-1,64,76,63h533c0,0,53,2,62-37"/>
</svg>
