<svg id="Layer_1" data-name="Layer 1" xmlns="http://www.w3.org/2000/svg" xmlns:xlink="http://www.w3.org/1999/xlink" viewBox="0 0 548.2 460"><defs><style>.cls-1,.cls-11{fill:#fff;}.cls-2{opacity:0.27;fill:url(#linear-gradient);}.cls-12,.cls-15,.cls-16,.cls-17,.cls-3,.cls-4,.cls-5{opacity:0.47;}.cls-3{fill:url(#linear-gradient-2);}.cls-4{fill:#1b3e70;}.cls-5{fill:url(#linear-gradient-3);}.cls-6{fill:url(#linear-gradient-4);}.cls-13,.cls-7{opacity:0.39;}.cls-7{fill:url(#linear-gradient-5);}.cls-8{fill:#bde6f5;}.cls-9{fill:url(#linear-gradient-6);}.cls-10{fill:url(#linear-gradient-7);}.cls-11{opacity:0.31;}.cls-12{fill:url(#linear-gradient-8);}.cls-13{fill:url(#linear-gradient-9);}.cls-14{opacity:0.29;}.cls-15{fill:url(#linear-gradient-10);}.cls-16{fill:url(#linear-gradient-11);}.cls-18,.cls-21,.cls-24{fill:none;stroke-miterlimit:10;}.cls-18{stroke:#4370b7;}.cls-18,.cls-24{stroke-width:0.25px;}.cls-19{opacity:0.69;fill:url(#linear-gradient-12);}.cls-20{fill:#31a2d6;}.cls-21{stroke:#fff;stroke-width:0.5px;}.cls-22{opacity:0.21;fill:url(#linear-gradient-13);}.cls-23{opacity:0.64;}.cls-24{stroke:#272f35;stroke-dasharray:6;}.cls-25{fill:#3666b1;}.cls-26{fill:url(#linear-gradient-14);}.cls-27{fill:#cd992b;}.cls-28{fill:url(#linear-gradient-15);}.cls-29{fill:#4370b7;}.cls-30{fill:#6999d1;}.cls-31{fill:url(#linear-gradient-16);}.cls-32{fill:url(#linear-gradient-17);}.cls-33{fill:url(#linear-gradient-18);}.cls-34{fill:url(#linear-gradient-19);}.cls-35{fill:url(#linear-gradient-20);}</style><linearGradient id="linear-gradient" x1="43.61" y1="537.93" x2="413.93" y2="108.82" gradientUnits="userSpaceOnUse"><stop offset="0" stop-color="#fff"/><stop offset="0.23" stop-color="#fdfeff"/><stop offset="0.31" stop-color="#f7f9fd"/><stop offset="0.56" stop-color="#b6c2e4"/><stop offset="0.63" stop-color="#b7c4e5"/><stop offset="0.95" stop-color="#b2c0e2"/><stop offset="0.97" stop-color="#b0bee1"/><stop offset="0.97" stop-color="#a8b7dd"/><stop offset="0.98" stop-color="#9babd6"/><stop offset="0.99" stop-color="#889bcd"/><stop offset="0.99" stop-color="#6f85c1"/><stop offset="1" stop-color="#516bb2"/><stop offset="1" stop-color="#435fab"/></linearGradient><linearGradient id="linear-gradient-2" x1="307.58" y1="66.64" x2="387.17" y2="66.64" gradientUnits="userSpaceOnUse"><stop offset="0.31" stop-color="#3ebade"/><stop offset="1" stop-color="#557cbe"/></linearGradient><linearGradient id="linear-gradient-3" x1="448.42" y1="189.05" x2="528.01" y2="189.05" xlink:href="#linear-gradient-2"/><linearGradient id="linear-gradient-4" x1="225.3" y1="211.16" x2="416.25" y2="211.16" gradientUnits="userSpaceOnUse"><stop offset="0" stop-color="#4370b7"/><stop offset="0" stop-color="#31a2d6"/><stop offset="1" stop-color="#467abe"/></linearGradient><linearGradient id="linear-gradient-5" x1="230.66" y1="207.77" x2="401.7" y2="207.77" xlink:href="#linear-gradient-4"/><linearGradient id="linear-gradient-6" x1="257.06" y1="225.4" x2="257.06" y2="225.4" gradientUnits="userSpaceOnUse"><stop offset="0.31" stop-color="#3ebade"/><stop offset="1" stop-color="#435fab"/></linearGradient><linearGradient id="linear-gradient-7" x1="80.26" y1="319.32" x2="412.46" y2="319.32" xlink:href="#linear-gradient-6"/><linearGradient id="linear-gradient-8" x1="84.39" y1="249.7" x2="424.01" y2="249.7" xlink:href="#linear-gradient-2"/><linearGradient id="linear-gradient-9" x1="149.11" y1="341.89" x2="245.37" y2="341.89" xlink:href="#linear-gradient-4"/><linearGradient id="linear-gradient-10" x1="256.84" y1="168.26" x2="383.33" y2="168.26" xlink:href="#linear-gradient-2"/><linearGradient id="linear-gradient-11" x1="228.61" y1="256.1" x2="355.1" y2="256.1" xlink:href="#linear-gradient-2"/><linearGradient id="linear-gradient-12" x1="239.25" y1="279.43" x2="344.46" y2="279.43" gradientUnits="userSpaceOnUse"><stop offset="0" stop-color="#4370b7"/><stop offset="0" stop-color="#65c8cb"/><stop offset="1" stop-color="#fff"/></linearGradient><linearGradient id="linear-gradient-13" x1="80.26" y1="250.12" x2="416.04" y2="250.12" gradientUnits="userSpaceOnUse"><stop offset="0" stop-color="#fff"/><stop offset="0.23" stop-color="#fdfeff"/><stop offset="0.31" stop-color="#f7f9fd"/><stop offset="0.5" stop-color="#b6c2e4"/><stop offset="0.63" stop-color="#b7c4e5"/><stop offset="0.95" stop-color="#b2c0e2"/><stop offset="0.97" stop-color="#b0bee1"/><stop offset="0.97" stop-color="#a8b7dd"/><stop offset="0.98" stop-color="#9babd6"/><stop offset="0.99" stop-color="#889bcd"/><stop offset="0.99" stop-color="#6f85c1"/><stop offset="1" stop-color="#516bb2"/><stop offset="1" stop-color="#435fab"/></linearGradient><linearGradient id="linear-gradient-14" x1="161.38" y1="231.24" x2="202.8" y2="231.24" xlink:href="#linear-gradient-6"/><linearGradient id="linear-gradient-15" x1="183.69" y1="239.61" x2="183.69" y2="239.61" xlink:href="#linear-gradient-6"/><linearGradient id="linear-gradient-16" x1="156.6" y1="213.24" x2="191.53" y2="213.24" xlink:href="#linear-gradient-6"/><linearGradient id="linear-gradient-17" x1="160.59" y1="211.32" x2="202.01" y2="211.32" xlink:href="#linear-gradient-6"/><linearGradient id="linear-gradient-18" x1="164.57" y1="200.57" x2="205.99" y2="200.57" xlink:href="#linear-gradient-6"/><linearGradient id="linear-gradient-19" x1="164.57" y1="189.81" x2="205.99" y2="189.81" xlink:href="#linear-gradient-6"/><linearGradient id="linear-gradient-20" x1="115.18" y1="249.04" x2="156.6" y2="249.04" xlink:href="#linear-gradient-6"/></defs><title>1</title><ellipse class="cls-1" cx="342.7" cy="256.2" rx="205.5" ry="161"/><polygon class="cls-2" points="163.6 188.2 0 355 198.7 460 416.7 339.1 163.6 188.2"/><path class="cls-3" d="M312.9,5.9l72.4,38.9a3.6,3.6,0,0,1,1.9,3.1v76.3a3.6,3.6,0,0,1-5.2,3.2L309.6,91.2a3.4,3.4,0,0,1-2-3.2V9.1A3.6,3.6,0,0,1,312.9,5.9Z" transform="translate(-4.1 -4)"/><path class="cls-4" d="M388.5,43.3l-74.3-39c-1.9-1-4.7.9-6,3.1a3.5,3.5,0,0,1,4.6-1.1l72.4,38.8a3.5,3.5,0,0,1,1.9,3.2v76.2A3.5,3.5,0,0,1,383,128h.1c2.4,1.2,7.3-2.3,7.3-4.9V46.5A3.7,3.7,0,0,0,388.5,43.3Z" transform="translate(-4.1 -4)"/><path class="cls-5" d="M453.7,128.4l72.4,38.8a3.5,3.5,0,0,1,1.9,3.2v76.2a3.6,3.6,0,0,1-5.2,3.2l-72.4-36.1a3.7,3.7,0,0,1-2-3.3V131.5A3.6,3.6,0,0,1,453.7,128.4Z" transform="translate(-4.1 -4)"/><path class="cls-4" d="M529.3,165.8,455,126.7c-1.8-.9-4.7.9-6,3.1a3.7,3.7,0,0,1,4.7-1.1l72.4,38.8a3.5,3.5,0,0,1,1.9,3.2v76.2a3.6,3.6,0,0,1-4.2,3.5h.1c2.5,1.2,7.3-2.3,7.3-4.9V168.9A3.4,3.4,0,0,0,529.3,165.8Z" transform="translate(-4.1 -4)"/><path class="cls-1" d="M484.2,216.6c.4-1.8-16-55.1-16-55.1l50.2,27.6s-30.7-5.4-30.7-4S484.2,216.6,484.2,216.6Z" transform="translate(-4.1 -4)"/><path class="cls-6" d="M412.3,177.8l-187-92.7V239.4l191,97.8v-153A7.2,7.2,0,0,0,412.3,177.8Zm-6.5,144.8-171-87.5V101l171,84Z" transform="translate(-4.1 -4)"/><polygon class="cls-7" points="230.7 231 230.7 97 401.7 180.9 401.7 318.6 230.7 231"/><path class="cls-8" d="M257.1,225.3V139.6a6,6,0,0,1,8.7-5.4l114.4,56.1a6.1,6.1,0,0,1,3.3,5.5v88a6,6,0,0,1-8.8,5.4L260.4,230.7A5.9,5.9,0,0,1,257.1,225.3Z" transform="translate(-4.1 -4)"/><path class="cls-9" d="M257.1,225.4" transform="translate(-4.1 -4)"/><polygon class="cls-10" points="221.2 235.4 80.3 307.2 274.3 403.2 412.5 333.3 221.2 235.4"/><path class="cls-11" d="M133.9,286.5,84.4,311.2,275,405.6a7.6,7.6,0,0,0,6.9,0l43.9-21.8Z" transform="translate(-4.1 -4)"/><path class="cls-12" d="M225.3,85.1l6.5-1.4a14.2,14.2,0,0,1,9.1,1l179.3,87.9a6.8,6.8,0,0,1,3.8,6.1V337.9a5.8,5.8,0,0,1-3.2,5.2l-140,72.3a6.1,6.1,0,0,1-5.6,0L87.8,322.2a6.3,6.3,0,0,1-3.4-5.6v-5.4l191.1,94.7a6.6,6.6,0,0,0,5.8-.1l135-68.3V184a6.9,6.9,0,0,0-3.8-6.1Z" transform="translate(-4.1 -4)"/><polygon class="cls-13" points="197.5 316.8 149.1 341.2 201.6 367 245.4 341.1 197.5 316.8"/><g class="cls-14"><rect class="cls-1" x="365.8" y="192.8" width="0.4" height="90.04"/><rect class="cls-1" x="352.9" y="186.7" width="0.4" height="90.04"/><rect class="cls-1" x="340.8" y="179.8" width="0.4" height="90.04"/><rect class="cls-1" x="328.5" y="174.6" width="0.4" height="90.04"/><rect class="cls-1" x="316" y="167.1" width="0.4" height="90.04"/><rect class="cls-1" x="303" y="161" width="0.4" height="90.04"/><rect class="cls-1" x="291" y="154.1" width="0.4" height="90.04"/><rect class="cls-1" x="278.7" y="148.9" width="0.4" height="90.04"/><rect class="cls-1" x="265.7" y="144" width="0.4" height="90.04"/></g><path class="cls-1" d="M133.3,244.9l.4-1.1a7.2,7.2,0,0,1-2.7-.8l.7-.7a9.2,9.2,0,0,0,2.5.8c1.4.1,2.4-.2,2.6-.9s-.4-1.1-1.7-1.6-2.8-1.3-2.5-2.3,1.7-1.5,3.5-1.4l.4-1.2,1.1.2-.3,1.1a7.4,7.4,0,0,1,2.3.6l-.7.7a6,6,0,0,0-2.3-.6c-1.4-.2-2.1.3-2.3.7s.4,1,1.9,1.5,2.6,1.4,2.3,2.4-1.6,1.6-3.6,1.6l-.4,1.2Z" transform="translate(-4.1 -4)"/><path class="cls-15" d="M256.8,141.4v-1.8a6.1,6.1,0,0,1,8.8-5.4l114.3,56.1a6,6,0,0,1,3.4,5.5V203" transform="translate(-4.1 -4)"/><path class="cls-16" d="M228.6,269.7V184a6.1,6.1,0,0,1,8.8-5.5l114.3,56.2a6,6,0,0,1,3.4,5.4v88.1a6,6,0,0,1-8.8,5.4L231.9,275.1A6.2,6.2,0,0,1,228.6,269.7Z" transform="translate(-4.1 -4)"/><g class="cls-17"><path class="cls-4" d="M228.6,183.7v0Z" transform="translate(-4.1 -4)"/><path class="cls-4" d="M356,232.2,241.7,176.1c-2.2-1.1-5.9-.1-8.7,1.8a5.7,5.7,0,0,1,4.4.4l114.3,56.1a6,6,0,0,1,3.4,5.5v88a6.2,6.2,0,0,1-2.5,5c3.4-.9,6.8-4,6.8-7.1V237.7A6.2,6.2,0,0,0,356,232.2Z" transform="translate(-4.1 -4)"/></g><polyline class="cls-18" points="230.7 181 230.7 264.7 341.3 321.9"/><path class="cls-19" d="M239.3,267.7s3.3-34,37.4-28.5,67.8-1.8,67.8-1.8v84.1Z" transform="translate(-4.1 -4)"/><polygon class="cls-20" points="316 83.4 316 30.2 323.2 33.7 323.2 87 316 83.4"/><polygon class="cls-20" points="329.4 90.1 329 45.7 336.2 49.2 336.2 93.5 329.4 90.1"/><polygon class="cls-20" points="344 97 343.7 63.2 351 66.7 351 100.7 344 97"/><polygon class="cls-20" points="357.6 103.7 357.1 59.2 364.4 62.8 364.4 107.1 357.6 103.7"/><polyline class="cls-21" points="311.3 9.5 311.3 81.1 376.1 113.1"/><polygon class="cls-22" points="221.2 88.9 80.3 307.2 276.7 411.3 416 176.4 221.2 88.9"/><g class="cls-23"><path class="cls-24" d="M388.9,76.9c14.4,6.4,28.4,14.4,43.4,20.4,2,1,5,2,6,4,1,25,0,49,0,74,4,2,7,4,10.7,5.1" transform="translate(-4.1 -4)"/><path class="cls-24" d="M305.3,36.5c-14-7.2-28-12.2-41.1-19.9l1.4,117.6" transform="translate(-4.1 -4)"/><polyline class="cls-24" points="476.7 224.8 476.7 264.7 386.3 316.8 386.3 253.4 379.4 257.2 351 275.2"/></g><path class="cls-25" d="M198,216.7v1c0,5.5-9.2,10-20.7,10-6.3,0-11.9-1.4-15.7-3.6,1.2,5,9.9,9.1,20.5,9.1s20.7-4.8,20.7-10.3c0-2.5-1.8-4.6-4.8-6.2" transform="translate(-4.1 -4)"/><path class="cls-26" d="M182.1,233.2c-11.4,0-20.7-4.8-20.7-10.3v6.7c0,5.5,9.3,10,20.7,10s20.7-4.5,20.7-10v-6.7c0,5.5-9.3,10.3-20.7,10.3" transform="translate(-4.1 -4)"/><path class="cls-27" d="M163.8,234.3" transform="translate(-4.1 -4)"/><path class="cls-27" d="M167,236.5" transform="translate(-4.1 -4)"/><path class="cls-27" d="M174.1,238.9" transform="translate(-4.1 -4)"/><path class="cls-27" d="M188.5,239.2" transform="translate(-4.1 -4)"/><path class="cls-27" d="M178.9,239.5" transform="translate(-4.1 -4)"/><path class="cls-28" d="M183.7,239.6" transform="translate(-4.1 -4)"/><path class="cls-29" d="M177.3,221.3c-11.4,0-20.7-4.9-20.7-10.4v6.8c0,5.5,9.3,10,20.7,10s20.7-4.5,20.7-10v-6.8c0,5.5-9.2,10.4-20.7,10.4" transform="translate(-4.1 -4)"/><path class="cls-27" d="M162.2,224.5" transform="translate(-4.1 -4)"/><path class="cls-27" d="M169.3,226.9" transform="translate(-4.1 -4)"/><path class="cls-27" d="M183.7,227.2" transform="translate(-4.1 -4)"/><path class="cls-30" d="M197.5,219.9c-2.2,4.5-10.4,7.8-20.2,7.8a39.2,39.2,0,0,1-10.1-1.3c2.9,2,8.1,3.6,14.9,3.6,10.9,0,17.5-4.2,17.5-7.1q0-1.5-2.1-3" transform="translate(-4.1 -4)"/><path class="cls-31" d="M181.3,219.7c-11.4,0-20.7-4.5-20.7-10v-4.5c-2.5,1.6-4,3.5-4,5.7,0,5.6,9.3,10.4,20.7,10.4a33.2,33.2,0,0,0,14.2-2.9,40,40,0,0,1-10.2,1.3" transform="translate(-4.1 -4)"/><path class="cls-32" d="M181.3,213.3c-11.4,0-20.7-4.8-20.7-10.3v6.7c0,5.5,9.3,10,20.7,10s20.7-4.5,20.7-10V203c0,5.5-9.3,10.3-20.7,10.3" transform="translate(-4.1 -4)"/><path class="cls-27" d="M166.2,216.5" transform="translate(-4.1 -4)"/><path class="cls-27" d="M191.7,218.4" transform="translate(-4.1 -4)"/><path class="cls-27" d="M173.3,219" transform="translate(-4.1 -4)"/><path class="cls-25" d="M202,203c0,5.5-9.3,10.3-20.7,10.3s-20.7-4.8-20.7-10.3,9.3-9.6,20.7-9.6,20.7,4,20.7,9.6" transform="translate(-4.1 -4)"/><path class="cls-30" d="M181.3,210.1c-10.9,0-17.5-4.2-17.5-7.1s6.6-7.2,17.5-7.2,17.5,4.3,17.5,7.2-6.6,7.1-17.5,7.1" transform="translate(-4.1 -4)"/><path class="cls-33" d="M185.3,202.6c-11.5,0-20.7-4.9-20.7-10.4v6.7c0,5.6,9.2,10,20.7,10s20.7-4.4,20.7-10v-6.7c0,5.5-9.3,10.4-20.7,10.4" transform="translate(-4.1 -4)"/><path class="cls-27" d="M167,203.6" transform="translate(-4.1 -4)"/><path class="cls-27" d="M170.1,205.8" transform="translate(-4.1 -4)"/><path class="cls-27" d="M173.3,207.1" transform="translate(-4.1 -4)"/><path class="cls-27" d="M177.3,208.2" transform="translate(-4.1 -4)"/><path class="cls-27" d="M191.7,208.5" transform="translate(-4.1 -4)"/><path class="cls-27" d="M182.1,208.9" transform="translate(-4.1 -4)"/><path class="cls-27" d="M186.9,208.9" transform="translate(-4.1 -4)"/><path class="cls-25" d="M206,192.2c0,5.5-9.3,10.4-20.7,10.4s-20.7-4.9-20.7-10.4,9.2-9.5,20.7-9.5,20.7,4,20.7,9.5" transform="translate(-4.1 -4)"/><path class="cls-30" d="M185.3,199.4c-10.9,0-17.5-4.3-17.5-7.2s6.6-7.2,17.5-7.2,17.5,4.3,17.5,7.2-6.6,7.2-17.5,7.2" transform="translate(-4.1 -4)"/><path class="cls-34" d="M185.3,191.8c-11.5,0-20.7-4.8-20.7-10.4v6.8c0,5.5,9.2,10,20.7,10s20.7-4.5,20.7-10v-6.8c0,5.6-9.3,10.4-20.7,10.4" transform="translate(-4.1 -4)"/><path class="cls-27" d="M203.6,186.2l-1.6,1.3" transform="translate(-4.1 -4)"/><path class="cls-27" d="M170.1,195" transform="translate(-4.1 -4)"/><path class="cls-27" d="M195.6,196.9" transform="translate(-4.1 -4)"/><path class="cls-27" d="M182.1,198.1" transform="translate(-4.1 -4)"/><path class="cls-25" d="M206,181.5c0,5.5-9.3,10.3-20.7,10.3s-20.7-4.8-20.7-10.3,9.2-9.6,20.7-9.6,20.7,4,20.7,9.6" transform="translate(-4.1 -4)"/><path class="cls-30" d="M185.3,188.6c-10.9,0-17.5-4.2-17.5-7.1s6.6-7.2,17.5-7.2,17.5,4.2,17.5,7.2-6.6,7.1-17.5,7.1" transform="translate(-4.1 -4)"/><path class="cls-1" d="M183.3,184.9l.4-1.1a8.4,8.4,0,0,1-2.8-.9l.8-.7a5.3,5.3,0,0,0,2.5.8c1.4.2,2.4-.2,2.6-.8s-.4-1.1-1.7-1.6-2.8-1.3-2.5-2.3,1.7-1.5,3.5-1.4l.4-1.2,1.1.2-.3,1a10.7,10.7,0,0,1,2.3.7l-.7.7a7.8,7.8,0,0,0-2.3-.7c-1.4-.1-2.1.3-2.3.8s.4.9,1.9,1.5,2.6,1.4,2.3,2.4-1.6,1.6-3.6,1.6l-.4,1.1Z" transform="translate(-4.1 -4)"/><path class="cls-35" d="M135.9,251c-11.4,0-20.7-4.8-20.7-10.3v6.7c0,5.5,9.3,10,20.7,10s20.7-4.5,20.7-10v-6.7c0,5.5-9.3,10.3-20.7,10.3" transform="translate(-4.1 -4)"/><path class="cls-27" d="M117.6,252.1" transform="translate(-4.1 -4)"/><path class="cls-27" d="M120.8,254.3" transform="translate(-4.1 -4)"/><path class="cls-27" d="M149.4,255" transform="translate(-4.1 -4)"/><path class="cls-27" d="M146.2,256.1" transform="translate(-4.1 -4)"/><path class="cls-27" d="M142.3,257" transform="translate(-4.1 -4)"/><path class="cls-27" d="M132.7,257.3" transform="translate(-4.1 -4)"/><path class="cls-25" d="M156.6,240.7c0,5.5-9.3,10.3-20.7,10.3s-20.7-4.8-20.7-10.3,9.3-9.6,20.7-9.6,20.7,4.1,20.7,9.6" transform="translate(-4.1 -4)"/><path class="cls-30" d="M135.9,247.8c-10.9,0-17.5-4.2-17.5-7.1s6.6-7.2,17.5-7.2,17.5,4.3,17.5,7.2-6.6,7.1-17.5,7.1" transform="translate(-4.1 -4)"/></svg>