<svg xmlns="http://www.w3.org/2000/svg" xmlns:xlink="http://www.w3.org/1999/xlink" viewBox="0 0 424.67 366.61"><defs><style>.cls-1{opacity:0.24;fill:url(#linear-gradient);}.cls-2{fill:#272f35;}.cls-3{fill:#0a64bf;}.cls-4{fill:#aadde5;}.cls-5{fill:#92cdd3;}.cls-6{fill:#eaa07f;}.cls-7{fill:#096ed3;}.cls-8{fill:#096bce;}.cls-9{fill:#d6f0f8;}.cls-10{fill:#c3e6ed;}.cls-11{fill:#dce8ea;}.cls-12{fill:#f4a983;}.cls-13{fill:#e8f6f9;}.cls-14{fill:#c8e6ed;}.cls-15{fill:#cee8ea;}.cls-16{fill:#0969b7;}.cls-17{fill:#fff;}</style><linearGradient id="linear-gradient" x1="18.92" y1="294.1" x2="478.69" y2="294.5" gradientTransform="matrix(-1, 0, 0, 1, 443.63, 0)" gradientUnits="userSpaceOnUse"><stop offset="0" stop-color="#fff"/><stop offset="0.24" stop-color="#fdfeff"/><stop offset="0.31" stop-color="#f8faff"/><stop offset="0.5" stop-color="#b2c4fb"/><stop offset="0.63" stop-color="#b4c6fb"/><stop offset="0.99" stop-color="#aec1fb"/></linearGradient></defs><title>Image 1</title><g id="Layer_2" data-name="Layer 2"><g id="Layer_2-2" data-name="Layer 2"><path class="cls-1" d="M3.81,314.66a27.5,27.5,0,0,1,13.7-9.74c41.63-13.72,317.24-102.83,382.78-79C471.24,251.67,367,284.39,345.1,293s-107.64,17.26-121.25,40-46.61,41.26-81.61,30.48-22.67-17.1-47.83-18.95-74.17,8.16-89.17-7.84C-2.73,328.17-.26,320.23,3.81,314.66Z"/></g><g id="Layer_1-2" data-name="Layer 1"><path class="cls-2" d="M391.82,206.55l7.52,5.38s5.05,26.82-7.52,30.57-18.47.62-14-4.06,12.7-13.72,7.09-17.62Z"/><path class="cls-3" d="M317.89,130.23c-.48,1.92,6.11,56.66,7.58,70.14a6.26,6.26,0,0,0,4.34,5.39l55.5,16.62s9.3-5.62,8.86-15.91l-46.35-17.78s3.92-68.43-2.72-73.58S317.89,130.23,317.89,130.23Z"/><path class="cls-3" d="M272.84,106.82c-2.21,18.24-23,43.51-23,43.51l-11.52-7,18.79-32.4-1.22-42.46s-.73-11.23,4.14-12.16c0,0,9.21-3.52,11.32,5.8S272.84,106.82,272.84,106.82Z"/><path class="cls-2" d="M305.18,253.38a31.66,31.66,0,0,1-11.3,15c-8.86,6.55-21,7.8-19.35,3.12s17.73-20.9,17.73-20.9l14.32,2.79"/><path class="cls-3" d="M301.56,142.84l19.87-15.68c5.21,4.11,2.88,23.6,2.88,23.6l-16.67,49.57a9.47,9.47,0,0,0-.35,3.31l1.95,49.77-21.38-.15-3.41-55.14,15.27-55.28"/><polygon class="cls-4" points="295.01 170.32 242.24 146.31 167.67 158.77 223.85 183.09 295.01 170.32"/><polygon class="cls-5" points="205.46 186.72 167.67 158.77 223.85 149.94 223.85 183.25 205.46 186.72"/><path class="cls-6" d="M274.74,41.69c.24,1.17,4.67,30.65,4.67,30.65L264.12,52Z"/><path class="cls-7" d="M279.41,94.84l15,45a4.78,4.78,0,0,0,5.45,3.34c7.74-1.47,23-5.39,20.21-13l-34-43.75Z"/><path class="cls-7" d="M266.11,52,277.19,69.3l-2.66-29.95h17.73s-5.32,8.89-3.55,18.25-.85,45.38-.85,45.38-20.77-18.69-26.09-29c0,0-4.72-11.72-5.17-13.66S261.44,51.35,266.11,52Z"/><polygon class="cls-8" points="276.09 44.5 282.95 50.11 279.52 54.09 287.86 67.42 293.59 95.96 277.19 69.3 275.32 48.22 276.09 44.5"/><polygon class="cls-8" points="263.05 54.6 264.12 62.04 267.5 59.47 269.66 72.34 291.78 93.4 277.19 69.3 268.06 55.03 263.05 54.6"/><polygon class="cls-9" points="295.01 170.32 294.55 272.78 223.64 293.03 223.85 183.09 295.01 170.32"/><polygon class="cls-10" points="223.85 183.09 167.67 158.77 167.17 256.45 223.64 293.03 223.85 183.09"/><path class="cls-11" d="M295,151.84c-.58-.58,0,13.78,0,13.78l-71.16,12.9-56.18-26.7V140.29Z"/><polygon class="cls-9" points="295.01 151.84 241.47 128 167.67 140.29 223.85 164.61 295.01 151.84"/><path class="cls-12" d="M271.83,127.16s-1.28,2.84-9.93,3.19-2.47,3.09-2.47,3.09l6.35-.05s-3.65,7.72-7.42,8.66-3.27,4.21-1,4,6.32-3,6.32-3-5.13,3-5.13,4.45,4.88-.24,6.2-1.41-4.66,3-4,4.21c1.48,2.89,6.74-2.8,6.74-2.8s-4.67,3.48-3.16,5.11,7.66-.16,10.19-6.52,4.88-14.25,4.88-14.25Z"/><polygon class="cls-13" points="223.85 164.61 223.85 178.52 167.67 151.82 167.67 140.29 223.85 164.61"/><polygon class="cls-4" points="182.1 198.89 138.32 178.97 76.47 189.3 123.06 209.48 182.1 198.89"/><polygon class="cls-5" points="107.81 212.49 76.47 189.3 123.06 181.98 123.06 209.62 107.81 212.49"/><polygon class="cls-9" points="182.1 198.89 181.71 283.87 122.89 300.67 123.06 209.48 182.1 198.89"/><polygon class="cls-10" points="123.06 209.48 76.47 189.3 76.05 270.33 122.89 300.67 123.06 209.48"/><path class="cls-11" d="M182.1,197.71c-.49-.48,0,11.43,0,11.43l-59,10.7L76.47,197.7v-9.57Z"/><polygon class="cls-9" points="182.1 197.71 137.68 177.94 76.47 188.13 123.06 208.3 182.1 197.71"/><polygon class="cls-13" points="123.06 208.3 123.06 219.84 76.47 197.7 76.47 188.13 123.06 208.3"/><polygon class="cls-4" points="51.82 270.63 74.47 260.32 106.46 265.67 82.36 276.1 51.82 270.63"/><polygon class="cls-5" points="90.24 277.66 106.46 265.67 82.36 261.88 82.36 276.18 90.24 277.66"/><polygon class="cls-14" points="51.82 270.63 52.02 314.58 82.44 323.27 82.36 276.1 51.82 270.63"/><polygon class="cls-9" points="82.36 276.1 106.46 265.67 106.67 307.58 82.44 323.27 82.36 276.1"/><path class="cls-11" d="M51.82,270c.25-.25,0,5.91,0,5.91l30.53,5.53L106.46,270v-4.95Z"/><polygon class="cls-15" points="51.82 270.02 74.8 259.79 106.46 265.06 82.36 275.5 51.82 270.02"/><polygon class="cls-13" points="82.36 275.5 82.36 281.46 106.46 270.01 106.46 265.06 82.36 275.5"/><path class="cls-7" d="M302.15,41.69s36.81,40.37,43,73.42c0,0-16.27,19-27.07,18.28l-21.29-33.22Z"/><path class="cls-16" d="M305.11,89.88c-2.22,18.25-23,43.51-23,43.51l-11.52-7L289.34,94l-1.23-42.46s-.73-11.23,4.15-12.17c0,0,9.2-3.52,11.32,5.81S305.11,89.88,305.11,89.88Z"/></g><g id="Layer_5" data-name="Layer 5"><polygon class="cls-17" points="276.09 44.5 277.19 69.3 268.06 55.03 276.09 44.5"/><path class="cls-12" d="M264.93,10.85c.84.57,12.19,10.76,12.19,19.42s3.54,23.86-9.31,24.32-32.12-27.13-32.12-27.13S244.77-2.95,264.93,10.85Z"/><path class="cls-2" d="M266.11,12.51S249.2,30.86,236,28,231.5,9,237.85,6.34,253.23.76,256,3c0,0,8-6.09,14.76-1s8.16,21.45,3.77,22.3S266.11,12.51,266.11,12.51Z"/><path class="cls-12" d="M273.92,23.07s-4.53-3.1,0-3.56,7,7.79,2.54,9.62S273.92,23.07,273.92,23.07Z"/></g></g></svg>