<?xml version="1.0" encoding="utf-8"?>
<!-- Generator: Adobe Illustrator 22.0.0, SVG Export Plug-In . SVG Version: 6.00 Build 0)  -->
<svg version="1.1" id="Layer_1" xmlns="http://www.w3.org/2000/svg" xmlns:xlink="http://www.w3.org/1999/xlink" x="0px" y="0px"
	 viewBox="0 0 423.9 522.5" style="enable-background:new 0 0 423.9 522.5;" xml:space="preserve">
<style type="text/css">
	.st0{fill:#FFFFFF;}
	.st1{opacity:0.23;fill:url(#SVGID_1_);}
	.st2{fill:url(#SVGID_2_);}
	.st3{fill:#DDE8F7;}
	.st4{opacity:0.47;fill:url(#SVGID_3_);}
	.st5{fill:#54A6DC;}
	.st6{opacity:0.47;fill:url(#SVGID_4_);}
	.st7{opacity:0.47;fill:#1B3E70;}
	.st8{opacity:0.47;fill:url(#SVGID_5_);}
	.st9{opacity:0.41;}
	.st10{fill:none;stroke:#FFFFFF;stroke-width:0.5;stroke-miterlimit:10;}
	.st11{fill:#272F35;}
	.st12{fill:#F4A982;}
	.st13{fill:#E99C79;}
	.st14{fill:#025F9C;}
	.st15{fill:#1C6AB4;}
	.st16{fill:#181E21;}
	.st17{opacity:0.47;fill:url(#SVGID_6_);}
	.st18{fill:url(#SVGID_7_);}
	.st19{fill:url(#SVGID_8_);}
	.st20{fill:url(#SVGID_9_);}
	.st21{fill:url(#SVGID_10_);}
	.st22{opacity:0.5;fill:#4EADE2;}
	.st23{fill:none;stroke:#FFFFFF;stroke-miterlimit:10;}
	.st24{fill:url(#SVGID_11_);}
	.st25{fill:url(#SVGID_12_);}
	.st26{fill:#2B68B2;}
	.st27{fill:#326CB5;}
	.st28{fill:#E69774;}
	.st29{fill:#283036;}
	.st30{fill:#0562A1;}
	.st31{opacity:0.33;fill:#1C6AB4;}
	.st32{fill:none;stroke:#FFFFFF;stroke-width:0.5;stroke-linecap:round;stroke-linejoin:round;stroke-miterlimit:10;}
	.st33{fill:#4AC8EF;}
	.st34{opacity:0.17;fill:url(#SVGID_13_);}
	.st35{opacity:0.47;fill:url(#SVGID_14_);}
	.st36{fill:none;stroke:#1C6AB4;stroke-width:0.25;stroke-miterlimit:10;}
</style>
<ellipse class="st0" cx="211.8" cy="331.2" rx="205.5" ry="161"/>
<linearGradient id="SVGID_1_" gradientUnits="userSpaceOnUse" x1="48.997" y1="355.884" x2="360.3408" y2="355.884">
	<stop  offset="0" style="stop-color:#FFFFFF"/>
	<stop  offset="0.2551" style="stop-color:#FBFDFE"/>
	<stop  offset="0.3105" style="stop-color:#F7F9FD"/>
	<stop  offset="0.4977" style="stop-color:#B6C2E4"/>
	<stop  offset="0.6279" style="stop-color:#B7C4E5"/>
	<stop  offset="0.9479" style="stop-color:#B2C0E2"/>
	<stop  offset="0.9644" style="stop-color:#B0BEE1"/>
	<stop  offset="0.9729" style="stop-color:#A9B7DE"/>
	<stop  offset="0.9796" style="stop-color:#9DABD7"/>
	<stop  offset="0.9854" style="stop-color:#8D9CCF"/>
	<stop  offset="0.9905" style="stop-color:#7A89C4"/>
	<stop  offset="0.9952" style="stop-color:#6376B9"/>
	<stop  offset="0.9995" style="stop-color:#4761AD"/>
	<stop  offset="1" style="stop-color:#435FAB"/>
</linearGradient>
<path class="st1" d="M70,210.5L49,397c0,0,84.5,132.1,294,98.9l17.3-207.1L70,210.5z"/>
<g>
	<linearGradient id="SVGID_2_" gradientUnits="userSpaceOnUse" x1="48.997" y1="396.9987" x2="192.2033" y2="396.9987">
		<stop  offset="0" style="stop-color:#AEC0E3"/>
		<stop  offset="1" style="stop-color:#99DBF9"/>
	</linearGradient>
	<ellipse class="st2" cx="120.6" cy="397" rx="71.6" ry="35.3"/>
	<ellipse class="st3" cx="121.9" cy="391.3" rx="70.3" ry="34.1"/>
</g>
<linearGradient id="SVGID_3_" gradientUnits="userSpaceOnUse" x1="323.3011" y1="208.6492" x2="26.9222" y2="181.0696">
	<stop  offset="0.3068" style="stop-color:#3EBADE"/>
	<stop  offset="1" style="stop-color:#557CBE"/>
</linearGradient>
<path class="st4" d="M70,27.8v211.7c0,5.8,3.2,11,8.4,13.6L336,382.7c10.1,5.1,22.1-2.3,22.1-13.6V160.8c0-5.7-3.2-10.9-8.2-13.5
	L92.2,14.3C82.1,9.1,70,16.4,70,27.8z"/>
<path class="st5" d="M173.9,121.8"/>
<g>
	<linearGradient id="SVGID_4_" gradientUnits="userSpaceOnUse" x1="170.5185" y1="168.0771" x2="256.7247" y2="168.0771">
		<stop  offset="0.3068" style="stop-color:#3EBADE"/>
		<stop  offset="1" style="stop-color:#557CBE"/>
	</linearGradient>
	<path class="st6" d="M176.2,102.3l78.4,42.1c1.3,0.7,2.1,2,2.1,3.4v82.6c0,2.9-3,4.8-5.6,3.5l-78.4-39.1c-1.3-0.7-2.2-2-2.2-3.5
		v-85.5C170.5,102.8,173.7,100.9,176.2,102.3z"/>
	<path class="st7" d="M258.1,142.9l-80.4-42.3c-2-1.1-5.1,1-6.5,3.3c1.1-1.5,3.2-2.2,5-1.2l78.4,42.1c1.3,0.7,2.1,2,2.1,3.4v82.6
		c0,2.5-2.2,4.2-4.5,3.8l0.1,0.1c2.7,1.3,7.9-2.4,7.9-5.3v-83C260.2,144.9,259.4,143.5,258.1,142.9z"/>
</g>
<path class="st0" d="M209.2,197.9c0.5-1.9-17.3-59.7-17.3-59.7l54.4,29.9c0,0-33.2-5.8-33.2-4.3S209.2,197.9,209.2,197.9z"/>
<g>
	<g>
		
			<linearGradient id="SVGID_5_" gradientUnits="userSpaceOnUse" x1="-19.3831" y1="109.3575" x2="59.2283" y2="109.3575" gradientTransform="matrix(0.9991 4.252883e-02 -4.252883e-02 0.9991 107.3854 97.7421)">
			<stop  offset="0.3068" style="stop-color:#3EBADE"/>
			<stop  offset="1" style="stop-color:#557CBE"/>
		</linearGradient>
		<path class="st8" d="M90.7,154.7l69.6,36.4c1.1,0.6,1.8,1.7,1.8,2.8l-2.2,64.7c-0.1,2.3-2.9,3.6-5.2,2.5L85,227
			c-1.2-0.6-1.9-1.7-1.8-2.8l2.3-67C85.5,154.8,88.4,153.5,90.7,154.7z"/>
		<path class="st7" d="M163.4,190L92,153.4c-1.8-0.9-4.6,0.5-5.9,2.3c1-1.1,2.9-1.6,4.6-0.7l69.6,36.4c1.1,0.6,1.8,1.7,1.8,2.8
			l-2.2,64.7c-0.1,1.9-2.1,3.2-4.2,2.8l0.1,0.1c2.4,1.1,7.2-1.6,7.3-3.8l2.2-65C165.3,191.7,164.6,190.6,163.4,190z"/>
	</g>
	<g class="st9">
		<polygon class="st10" points="98.5,176.7 141.2,197.6 138.2,232 95.4,211.2 		"/>
		<line class="st10" x1="112.2" y1="183.4" x2="109.1" y2="217.8"/>
		<line class="st10" x1="126.1" y1="190.2" x2="123.1" y2="224.9"/>
		<line class="st10" x1="97.4" y1="187.9" x2="140.1" y2="208.9"/>
		<line class="st10" x1="96" y1="198.8" x2="139.2" y2="220"/>
	</g>
</g>
<g class="st9">
	<polygon class="st10" points="185.6,250.7 227.9,273.1 227.9,317.1 185.6,294.8 	"/>
	<line class="st10" x1="199.1" y1="257.9" x2="199.1" y2="301.9"/>
	<line class="st10" x1="212.9" y1="265.2" x2="212.9" y2="309.5"/>
	<line class="st10" x1="185.4" y1="265.1" x2="227.8" y2="287.5"/>
	<line class="st10" x1="185" y1="279" x2="227.9" y2="301.7"/>
</g>
<g>
	<path class="st11" d="M123.9,399.6l0.1,2.9c0,0,4.9,1.8,11.8-0.3c6.9-2.2,18.8-8.1,16.3-11C149.5,388.2,132,387.8,123.9,399.6z"/>
	<path class="st11" d="M98.8,381.9l0.1,2.9c0,0,4.9,1.8,11.8-0.3s18.8-8.1,16.3-11S106.9,370.1,98.8,381.9z"/>
	<path class="st12" d="M178,212.7c0,0,0.2-5.1,3-8c2.8-3,3.6-5.5,7.2-4.6c3.6,0.9,3.9,6.8,1.9,9.2s-5.6,6.8-5.2,7
		C185.2,216.3,178,212.7,178,212.7z"/>
	<polygon class="st0" points="175.3,212.9 177.8,210.5 185.4,214.6 183.2,217.6 	"/>
	<polygon class="st13" points="113.8,193.2 112.6,198.8 127.5,203.3 128.6,196.5 	"/>
	<polygon class="st0" points="111.7,198.6 113.2,196.1 129.4,200.8 128.9,205.7 	"/>
	<path class="st12" d="M137,169.8c0,0,4.2,15,1.6,19.2s-2.6,11.8-11.1,9.1c-8.4-2.7-11.4-10.1-11.4-10.1S122,172,137,169.8z"/>
	<path class="st14" d="M99.9,289l-2.6,93.6c0,0,7.7,2,15-3.6l2.1-69.3l4.1-0.1l4.3,89.4c0,0,9.2,6.1,15-4.3l3.7-102.5L99.9,289z"/>
	<path class="st15" d="M111.7,198.6c0,0-8.1,1.1-10.7,5.7c-2.6,4.6-3,22.7-2.9,25.4c0.1,2.7-1,44.8-1,44.8l0.4,13.6
		c0,0,28.1,13.2,46.4,4.6l0.7-53.2c0,0,11.9,11.2,16.5,11.1c4.5-0.1,24.4-33.2,24.4-33.2l-11-5.6l-16.2,19c0,0-17.7-18.4-23.3-23.3
		C129.5,202.5,111.7,198.6,111.7,198.6z"/>
	<path class="st16" d="M119.3,195.7c-3.3,0.7-7.6-1.3-7.6-1.3s-5.4-8-5.5-11.6c-0.1-3.6-1.7-8.4-0.3-10.2c1.5-1.8,1.7-3.1,3.5-4.3
		c1.8-1.3,1.7-2.2,4.4-3.1c2.7-1,5.4-1.7,7.8-1.7c2.4-0.1,6.9-1.4,9.6-0.3c2.7,1.1,5.2,1.4,5.5,3.2c0.4,1.8,0.1,3.6,0.1,3.6
		l-4.1,3.4l-4.7,2.8l-2.7,2.2c0,0-1.1,4.8-0.4,6c0.6,1.2,0.9,2.4,0.9,2.4s-2.1-2.8-3.7-0.7c-1.6,2.1-1,4.9,1.2,5.5
		c2.2,0.6,2.6,0.3,2.6,0.3s-2.6,3-3.7,3.6C120.6,196.4,119.3,195.7,119.3,195.7z"/>
	<path class="st12" d="M139.1,179.7c0,0,0.7,3.3,1.3,4.8c0.6,1.6,0.1,3.4-1.3,3.4s-2.7-1.2-2.7-1.2L139.1,179.7z"/>
	<path class="st16" d="M138.9,188.5c0,0-2.1-0.5-4,0.1c-1.9,0.6-1.5,2-2.9,3c-1.3,0.9-2.7,1.3-3,1.2c-0.3-0.1-3.6-7.7-3.6-7.7
		s-0.2-1.5,0,5.7c0.1,2.4-3.1,4.7-3.1,4.7s3.9,2.8,7.4,3.3c3.5,0.5,7-0.4,6.9-2.8c-0.1-2.4,0.3-3.4,0.3-3.4s-2.3,1.3-2.6,0
		c-0.3-1.2,1.6-2.4,2.1-2.3c0.5,0.1,1.1,0.8,1.2,0.4c0.2-0.3,0.2-0.3,0.2-0.3l0.7-1.3"/>
</g>
<linearGradient id="SVGID_6_" gradientUnits="userSpaceOnUse" x1="273.6728" y1="220.2839" x2="345.217" y2="220.2839">
	<stop  offset="0.3068" style="stop-color:#3EBADE"/>
	<stop  offset="1" style="stop-color:#557CBE"/>
</linearGradient>
<path class="st17" d="M280.9,184l61.7,32.2c1.6,0.8,2.6,2.5,2.6,4.4v31.7c0,3.7-3.9,6.1-7.2,4.4l-61.7-31.8
	c-1.6-0.8-2.7-2.5-2.7-4.4v-32.1C273.7,184.6,277.6,182.3,280.9,184z"/>
<path class="st7" d="M345.3,214.1l-61.7-32.2c-2.3-1.2-6.2,0.3-8.1,2.7c1.4-1.3,3.6-1.7,5.5-0.7l61.7,32.2c1.6,0.8,2.6,2.5,2.6,4.4
	v31.7c0,3.3-3.1,5.5-6.1,4.8l0,0c3.3,1.7,9-2.2,8.7-6.8v-31.7C347.9,216.7,346.9,215,345.3,214.1z"/>
<linearGradient id="SVGID_7_" gradientUnits="userSpaceOnUse" x1="279.923" y1="209.7522" x2="337.5266" y2="209.7522">
	<stop  offset="0.3068" style="stop-color:#3EBADE"/>
	<stop  offset="0.9958" style="stop-color:#C2E8FA"/>
</linearGradient>
<polygon class="st18" points="279.9,193.8 337.5,222.5 337.5,225.7 279.9,197.4 "/>
<linearGradient id="SVGID_8_" gradientUnits="userSpaceOnUse" x1="279.923" y1="216.4595" x2="337.5266" y2="216.4595">
	<stop  offset="0.3068" style="stop-color:#3EBADE"/>
	<stop  offset="0.9958" style="stop-color:#C2E8FA"/>
</linearGradient>
<polygon class="st19" points="279.9,200.6 337.5,229.2 337.5,232.4 279.9,204.2 "/>
<linearGradient id="SVGID_9_" gradientUnits="userSpaceOnUse" x1="279.923" y1="222.5078" x2="337.5266" y2="222.5078">
	<stop  offset="0.3068" style="stop-color:#3EBADE"/>
	<stop  offset="0.9958" style="stop-color:#C2E8FA"/>
</linearGradient>
<polygon class="st20" points="279.9,206.6 337.5,235.3 337.5,238.4 279.9,210.2 "/>
<linearGradient id="SVGID_10_" gradientUnits="userSpaceOnUse" x1="279.923" y1="228.8205" x2="337.5266" y2="228.8205">
	<stop  offset="0.3068" style="stop-color:#3EBADE"/>
	<stop  offset="0.9958" style="stop-color:#C2E8FA"/>
</linearGradient>
<polygon class="st21" points="279.9,212.9 337.5,241.6 337.5,244.7 279.9,216.5 "/>
<path class="st10" d="M226.5,227.6v33c0,6.1,3.4,11.6,8.9,14.3l66.3,32.9c10.6,5.3,23.1-2.5,23.1-14.3v-37.6"/>
<circle class="st0" cx="226.5" cy="227.6" r="2"/>
<circle class="st0" cx="324.8" cy="257.3" r="2"/>
<polyline class="st10" points="82.7,39.7 82.7,114.3 155.5,154.2 "/>
<polygon class="st22" points="83,77.2 141.4,77.2 149.1,150.1 83,113.9 "/>
<ellipse class="st10" cx="126.5" cy="77.2" rx="2.3" ry="2.9"/>
<ellipse class="st10" cx="146.1" cy="127.3" rx="2.3" ry="2.9"/>
<line class="st10" x1="82.7" y1="103" x2="89.8" y2="117.6"/>
<path class="st10" d="M313,155.7"/>
<line class="st23" x1="269.4" y1="6" x2="349.5" y2="47.3"/>
<line class="st23" x1="268.6" y1="16.5" x2="348.8" y2="57.8"/>
<line class="st23" x1="265.5" y1="26.6" x2="345.7" y2="67.9"/>
<g>
	<line class="st23" x1="275.9" y1="134.4" x2="346.4" y2="170.6"/>
	<line class="st23" x1="275.3" y1="143.7" x2="345.8" y2="179.9"/>
	<line class="st23" x1="272.5" y1="152.5" x2="343" y2="188.8"/>
</g>
<path class="st7" d="M356.3,145.7L93.5,9.6c-10.1-5.2-22.1,1.9-22.6,13.1c2.8-8.6,12.8-13.3,21.5-8.8l257.7,133
	c5.1,2.6,8.2,7.8,8.2,13.5v208.3c0,10.4-10,17.4-19.4,14.6c-0.8,0.2-1.6,0.3-2.4,0.3l5.8,2.9c10.3,5.2,22.5-2.3,22.5-13.9V159.5
	C364.7,153.7,361.5,148.3,356.3,145.7z"/>
<g>
	<linearGradient id="SVGID_11_" gradientUnits="userSpaceOnUse" x1="203.6619" y1="484.4776" x2="346.8682" y2="484.4776">
		<stop  offset="0" style="stop-color:#AEC0E3"/>
		<stop  offset="1" style="stop-color:#99DBF9"/>
	</linearGradient>
	<ellipse class="st24" cx="275.3" cy="484.5" rx="71.6" ry="35.3"/>
	<ellipse class="st3" cx="276.5" cy="478.8" rx="70.3" ry="34.1"/>
	<linearGradient id="SVGID_12_" gradientUnits="userSpaceOnUse" x1="226.0883" y1="478.7962" x2="329.9509" y2="478.7962">
		<stop  offset="0" style="stop-color:#AEC0E3"/>
		<stop  offset="1" style="stop-color:#99DBF9"/>
	</linearGradient>
	<ellipse class="st25" cx="278" cy="478.8" rx="51.9" ry="25.1"/>
</g>
<g>
	<polygon class="st0" points="237,321.6 216.9,307.6 238.7,291.7 269.4,310.4 248.4,329.3 	"/>
	<path class="st12" d="M243.3,324.8c0,0-4.1-7.5-6.2-7.4c-2.1,0.1-0.1,4.2-0.1,4.2s-5.9-2.1-7.5-1.8c-1.4,0.2-2.9,10,10.7,10.8
		C253.7,331.4,243.3,324.8,243.3,324.8z"/>
	<path class="st11" d="M284,481.7l-0.2,8c0,0-3.4,1.2-11.3-2.3s-17.2-6.9-17.8-9.4c-1.6-6.5,12.4-2.3,17.3-1.3
		C276.7,477.8,284,481.7,284,481.7z"/>
	<path class="st11" d="M306.1,468.1l-0.3,8.3c0,0-6,0.4-11.3-2.2c-7.9-3.7-17.2-6.9-17.8-9.4c-1.6-6.5,12.4-2.3,17.3-1.3
		C298.8,464.6,306.1,468.1,306.1,468.1z"/>
	<path class="st26" d="M306.5,380.7c-0.4,0.2,0.9,91.3,0.9,91.3s-13,3.4-15.5-3.5l-3.5-94.5L306.5,380.7z"/>
	<path class="st27" d="M271.3,381.1c0,0,0.6,97.3,0.5,98.4c-0.1,1.1,7.2,5.6,13.2,3l4.8-84.9l0.5-18.1l-20.1,1"/>
	<polygon class="st28" points="291.1,287.2 294.2,295.2 278.6,299.5 278.9,288.4 	"/>
	<path class="st12" d="M269.3,276c-0.1,4.2-0.8,5.6-0.2,7.8c0.6,2.2,3.5,4.4,3.5,4.4s4.8,1.9,6.3,1.9c8.8,0.3,12.2-2.9,12.2-2.9
		l3.8-17.9l-6.7-6.7l-16.4-4.1C271.8,258.5,269.4,271.8,269.3,276z"/>
	<path class="st29" d="M271.9,254.3c0,0-5.4,2.1-4.8,5c0.6,2.9,6.6,3.1,7.3,3.3c0.7,0.2,0.8,2,1.4,6.7c0.5,4.7,6.6,4.4,6.6,4.4
		s1.6-3.1,4.2,0.1c2.6,3.2-0.8,6.4-3.7,5.2c0,0,0.2,7.3,5.6,8c5.4,0.7,10.3-2,12-7.9C302.2,273.2,310,240.6,271.9,254.3z"/>
	<polygon class="st0" points="275.7,299.5 278.2,296.2 294.4,290.5 296.5,293.5 	"/>
	<path class="st15" d="M296.1,292.5c0,0-9,4.2-22.2,7.4c0,0-9.4,4.8-10.1,9.8c-0.7,5-0.6,23.8-0.6,23.8l-16.1-10
		c0,0-7.1-0.2-7.1,9.3c0,0,16.2,15.9,23,17.3l4,1.3l-0.9,31.5c0,0,8.7,2,24.2,0.7l0.8-8l1.3,7.5c0,0,8.3,2,16.5-4l0.9-33.9
		c0,0,6.7-4.9,7.7-20.3C318.5,309.5,307.6,283.6,296.1,292.5z"/>
	<path class="st30" d="M309.8,345.3c0,0-0.2-28.9-0.7-30.6C309.1,314.7,313.1,333.2,309.8,345.3z"/>
	<path class="st30" d="M277.5,325.8c0,0,0.9,8.7,0.9,17.7s-11.4,8.1-11.4,8.1s3.6,1.7,9.1-0.6C283.7,347.7,277.5,325.8,277.5,325.8z
		"/>
</g>
<g>
	<polygon class="st31" points="165.8,300.3 172.7,304.1 183.4,304.1 190.1,300 184.6,295.9 173.2,295.5 	"/>
	<g>
		<polyline class="st32" points="173.4,295.8 178.7,277.1 184.8,296.2 		"/>
		<polyline class="st32" points="183.7,304.4 178.7,277.1 173.3,304.4 		"/>
		<polyline class="st32" points="166.5,300.6 178.7,277.1 190.1,300.1 		"/>
	</g>
</g>
<path class="st33" d="M6.6,138.2"/>
<g>
	<g>
		<linearGradient id="SVGID_13_" gradientUnits="userSpaceOnUse" x1="166.8303" y1="366.7306" x2="256.8513" y2="366.7306">
			<stop  offset="0.3068" style="stop-color:#3EBADE"/>
			<stop  offset="1" style="stop-color:#557CBE"/>
		</linearGradient>
		<path class="st34" d="M209.9,342.1l-41.3,21.7c-2.3,1.2-2.3,4.5,0,5.7l41.3,21.8c0.9,0.5,2.1,0.5,3,0l42.2-21.8
			c2.3-1.2,2.3-4.6,0-5.8l-42.2-21.7C211.9,341.6,210.8,341.6,209.9,342.1z"/>
		<linearGradient id="SVGID_14_" gradientUnits="userSpaceOnUse" x1="164.5908" y1="379.4507" x2="259.0909" y2="379.4507">
			<stop  offset="0.3068" style="stop-color:#3EBADE"/>
			<stop  offset="1" style="stop-color:#557CBE"/>
		</linearGradient>
		<path class="st35" d="M257.2,364.9l-1.3-0.7c0,0.1-0.1,0.1-0.1,0.2c1.5,1.5,1.3,4.1-0.8,5.2l-42.2,21.8c-0.9,0.5-2.1,0.5-3,0
			l-41.3-21.8c-2.2-1.1-2.3-4.1-0.4-5.5c0,0,0-0.1-0.1-0.1l-1.7,0.9c-2.4,1.3-2.4,4.9,0,6.2l43.4,23.5c1,0.5,2.2,0.5,3.1,0
			l44.3-23.5C259.7,369.8,259.7,366.2,257.2,364.9z"/>
	</g>
	<polygon class="st0" points="177,366.3 212.2,348.2 248.7,366.8 213.1,385.8 	"/>
	<line class="st36" x1="186.9" y1="367" x2="212.8" y2="353.3"/>
	<line class="st36" x1="191.4" y1="369.6" x2="217.3" y2="355.8"/>
	<line class="st36" x1="196.9" y1="372.4" x2="222.8" y2="358.7"/>
	<line class="st36" x1="202.8" y1="374.7" x2="228.7" y2="360.9"/>
	<line class="st36" x1="209.1" y1="377.7" x2="235.1" y2="363.9"/>
	<line class="st36" x1="213.6" y1="380.7" x2="239.5" y2="367"/>
</g>
</svg>
