<?xml version="1.0" encoding="utf-8"?>
<!-- Generator: Adobe Illustrator 22.0.0, SVG Export Plug-In . SVG Version: 6.00 Build 0)  -->
<svg version="1.1" id="Layer_1" xmlns="http://www.w3.org/2000/svg" xmlns:xlink="http://www.w3.org/1999/xlink" x="0px" y="0px"
	 viewBox="0 0 454.9 374.5" style="enable-background:new 0 0 454.9 374.5;" xml:space="preserve">
<style type="text/css">
	.st0{fill:#FFFFFF;}
	.st1{opacity:0.24;fill:url(#SVGID_1_);}
	.st2{fill:#272F35;}
	.st3{fill:#2866B1;}
	.st4{fill:#ACDFE6;}
	.st5{fill:#92CDD3;}
	.st6{fill:#EBA17F;}
	.st7{fill:#346EB6;}
	.st8{fill:#326CB5;}
	.st9{fill:#D6EFF6;}
	.st10{fill:#C4E6ED;}
	.st11{fill:#DCE8EA;}
	.st12{fill:#F4A982;}
	.st13{fill:#E9F6F8;}
	.st14{fill:#C9E6ED;}
	.st15{fill:#CEE8EA;}
	.st16{fill:#196AB4;}
</style>
<ellipse class="st0" cx="163.5" cy="209.5" rx="158.5" ry="120"/>
<linearGradient id="SVGID_1_" gradientUnits="userSpaceOnUse" x1="23.8616" y1="296.6493" x2="483.6372" y2="297.0512">
	<stop  offset="0" style="stop-color:#FFFFFF"/>
	<stop  offset="0.2551" style="stop-color:#FBFDFE"/>
	<stop  offset="0.3105" style="stop-color:#F7F9FD"/>
	<stop  offset="0.4977" style="stop-color:#B6C2E4"/>
	<stop  offset="0.6279" style="stop-color:#B7C4E5"/>
	<stop  offset="0.9914" style="stop-color:#B2C0E2"/>
</linearGradient>
<path class="st1" d="M444.8,317.2c-3.4-4.6-8.3-7.9-13.7-9.7c-41.6-13.7-317.2-102.8-382.8-79c-70.9,25.8,33.3,58.5,55.2,67.1
	c21.9,8.6,107.6,17.3,121.2,39.9s46.6,41.3,81.6,30.5s22.7-17.1,47.8-18.9c25.2-1.8,74.2,8.2,89.2-7.8
	C451.3,330.7,448.8,322.8,444.8,317.2z"/>
<path class="st2" d="M56.8,209.1l-7.5,5.4c0,0-5.1,26.8,7.5,30.6c12.6,3.7,18.5,0.6,14-4.1c-4.4-4.7-12.7-13.7-7.1-17.6L56.8,209.1z
	"/>
<path class="st3" d="M130.7,132.8c0.5,1.9-6.1,56.7-7.6,70.1c-0.3,2.6-2,4.7-4.3,5.4l-55.5,16.6c0,0-9.3-5.6-8.9-15.9l46.4-17.8
	c0,0-3.9-68.4,2.7-73.6S130.7,132.8,130.7,132.8z"/>
<path class="st3" d="M175.7,109.4c2.2,18.2,23,43.5,23,43.5l11.5-7l-18.8-32.4l1.2-42.5c0,0,0.7-11.2-4.1-12.2c0,0-9.2-3.5-11.3,5.8
	C175.1,74,175.7,109.4,175.7,109.4z"/>
<path class="st2" d="M143.4,255.9c0,0,2.4,8.5,11.3,15c8.9,6.5,21,7.8,19.3,3.1s-17.7-20.9-17.7-20.9l-14.3,2.8"/>
<path class="st3" d="M147,145.4l-19.9-15.7c-5.2,4.1-2.9,23.6-2.9,23.6l16.7,49.6c0.3,1.1,0.4,2.2,0.4,3.3l-2,49.8l21.4-0.2
	l3.4-55.1l-15.3-55.3"/>
<polygon class="st4" points="153.6,172.9 206.3,148.9 280.9,161.3 224.7,185.6 "/>
<polygon class="st5" points="243.1,189.3 280.9,161.3 224.7,152.5 224.7,185.8 "/>
<path class="st6" d="M173.8,44.2c-0.2,1.2-4.7,30.6-4.7,30.6l15.3-20.4L173.8,44.2z"/>
<path class="st3" d="M147,145.4"/>
<path class="st7" d="M169.2,97.4l-15,45c-0.7,2.3-3,3.8-5.5,3.3c-7.7-1.5-23-5.4-20.2-13l34-43.7L169.2,97.4z"/>
<path class="st7" d="M182.5,54.5l-11.1,17.3l2.7-29.9h-17.7c0,0,5.3,8.9,3.5,18.2c-1.8,9.4,0.8,45.4,0.8,45.4s20.8-18.7,26.1-29
	c0,0,4.7-11.7,5.2-13.7C192.4,60.9,187.1,53.9,182.5,54.5z"/>
<path class="st0" d="M174,139"/>
<polygon class="st8" points="172.5,47 165.6,52.7 169.1,56.6 160.7,70 155,98.5 171.4,71.8 173.3,50.8 "/>
<polygon class="st8" points="185.5,57.1 184.5,64.6 181.1,62 178.9,74.9 156.8,95.9 171.4,71.8 180.5,57.6 "/>
<polygon class="st9" points="153.6,172.9 154,275.3 224.9,295.6 224.7,185.6 "/>
<polygon class="st10" points="224.7,185.6 280.9,161.3 281.4,259 224.9,295.6 "/>
<path class="st11" d="M153.6,154.4c0.6-0.6,0,13.8,0,13.8l71.2,12.9l56.2-26.7v-11.5L153.6,154.4z"/>
<polygon class="st9" points="153.6,154.4 207.1,130.6 280.9,142.8 224.7,167.2 "/>
<path class="st12" d="M176.7,129.7c0,0,1.3,2.8,9.9,3.2c8.5,0.3,2.5,3.1,2.5,3.1l-6.4,0c0,0,3.7,7.7,7.4,8.7c3.8,0.9,3.3,4.2,1,4
	c-2.3-0.2-6.3-3-6.3-3s5.1,3,5.1,4.4c0,1.4-4.9-0.2-6.2-1.4c-1.3-1.2,4.7,3,4,4.2c-1.5,2.9-6.7-2.8-6.7-2.8s4.7,3.5,3.2,5.1
	c-1.5,1.6-7.7-0.2-10.2-6.5c-2.5-6.4-4.9-14.3-4.9-14.3L176.7,129.7z"/>
<polygon class="st13" points="224.7,167.2 224.7,181.1 280.9,154.4 280.9,142.8 "/>
<g>
	<polygon class="st4" points="266.5,201.4 310.3,181.5 372.1,191.8 325.5,212 	"/>
	<polygon class="st5" points="340.8,215 372.1,191.8 325.5,184.5 325.5,212.2 	"/>
	<polygon class="st9" points="266.5,201.4 266.9,286.4 325.7,303.2 325.5,212 	"/>
	<polygon class="st10" points="325.5,212 372.1,191.8 372.5,272.9 325.7,303.2 	"/>
	<path class="st11" d="M266.5,200.3c0.5-0.5,0,11.4,0,11.4l59,10.7l46.6-22.1v-9.6L266.5,200.3z"/>
	<polygon class="st9" points="266.5,200.3 310.9,180.5 372.1,190.7 325.5,210.8 	"/>
	<polygon class="st13" points="325.5,210.8 325.5,222.4 372.1,200.2 372.1,190.7 	"/>
</g>
<g>
	<polygon class="st4" points="396.8,273.2 374.1,262.9 342.1,268.2 366.2,278.6 	"/>
	<polygon class="st5" points="358.3,280.2 342.1,268.2 366.2,264.4 366.2,278.7 	"/>
	<polygon class="st14" points="396.8,273.2 396.6,317.1 366.1,325.8 366.2,278.6 	"/>
	<polygon class="st9" points="366.2,278.6 342.1,268.2 341.9,310.1 366.1,325.8 	"/>
	<path class="st11" d="M396.8,272.6c-0.2-0.2,0,5.9,0,5.9l-30.5,5.5l-24.1-11.5v-5L396.8,272.6z"/>
	<polygon class="st15" points="396.8,272.6 373.8,262.3 342.1,267.6 366.2,278 	"/>
	<polygon class="st13" points="366.2,278 366.2,284 342.1,272.6 342.1,267.6 	"/>
</g>
<path class="st7" d="M146.4,44.2c0,0-36.8,40.4-42.9,73.4c0,0,16.3,19,27.1,18.3l21.3-33.2L146.4,44.2z"/>
<path class="st16" d="M143.5,92.4c2.2,18.2,23,43.5,23,43.5l11.5-7l-18.8-32.4l1.2-42.5c0,0,0.7-11.2-4.1-12.2c0,0-9.2-3.5-11.3,5.8
	C142.9,57,143.5,92.4,143.5,92.4z"/>
<polygon class="st0" points="172.5,47 171.4,71.8 180.5,57.6 "/>
<path class="st12" d="M183.6,13.4c-0.8,0.6-12.2,10.8-12.2,19.4s-3.5,23.9,9.3,24.3c12.9,0.5,32.1-27.1,32.1-27.1
	S203.8-0.4,183.6,13.4z"/>
<path class="st2" d="M182.5,15.1c0,0,16.9,18.4,30.1,15.5s4.5-19-1.8-21.6s-15.4-5.6-18.1-3.3c0,0-8-6.1-14.8-1S169.7,26,174,26.9
	C178.4,27.7,182.5,15.1,182.5,15.1z"/>
<path class="st12" d="M174.7,25.6c0,0,4.5-3.1,0-3.6s-7,7.8-2.5,9.6C176.6,33.5,174.7,25.6,174.7,25.6z"/>
</svg>
