<svg xmlns="http://www.w3.org/2000/svg" xmlns:xlink="http://www.w3.org/1999/xlink" viewBox="0 0 527.12 459.98"><defs><style>.cls-1{opacity:0.27;fill:url(#linear-gradient);}.cls-11,.cls-14,.cls-15,.cls-16,.cls-2,.cls-3,.cls-4{opacity:0.47;}.cls-2{fill:url(#linear-gradient-2);}.cls-3{fill:#103c70;}.cls-4{fill:url(#linear-gradient-3);}.cls-10,.cls-5{fill:#fff;}.cls-6{fill:url(#linear-gradient-4);}.cls-12,.cls-7{opacity:0.39;}.cls-7{fill:url(#linear-gradient-5);}.cls-8{fill:#b9eefc;}.cls-9{fill:url(#linear-gradient-6);}.cls-10{opacity:0.31;}.cls-11{fill:url(#linear-gradient-7);}.cls-12{fill:url(#linear-gradient-8);}.cls-13{opacity:0.29;}.cls-14{fill:url(#linear-gradient-9);}.cls-15{fill:url(#linear-gradient-10);}.cls-17,.cls-20,.cls-23{fill:none;stroke-miterlimit:10;}.cls-17{stroke:#1a74f2;}.cls-17,.cls-23{stroke-width:0.25px;}.cls-18{opacity:0.69;fill:url(#linear-gradient-11);}.cls-19{fill:#30a2d6;}.cls-20{stroke:#fff;stroke-width:0.5px;}.cls-21{opacity:0.21;fill:url(#linear-gradient-12);}.cls-22{opacity:0.64;}.cls-23{stroke:#272f35;stroke-dasharray:6;}.cls-24{fill:#0564d6;}.cls-25{fill:url(#linear-gradient-13);}.cls-26{fill:#1a74f2;}.cls-27{fill:#54a0fc;}.cls-28{fill:url(#linear-gradient-14);}.cls-29{fill:url(#linear-gradient-15);}.cls-30{fill:url(#linear-gradient-16);}.cls-31{fill:url(#linear-gradient-17);}.cls-32{fill:#ce9912;}.cls-33{fill:url(#linear-gradient-18);}</style><linearGradient id="linear-gradient" x1="43.61" y1="537.93" x2="413.93" y2="108.82" gradientTransform="matrix(-1, 0, 0, 1, 527.12, 0)" gradientUnits="userSpaceOnUse"><stop offset="0" stop-color="#fff"/><stop offset="0.24" stop-color="#fdfeff"/><stop offset="0.31" stop-color="#f8faff"/><stop offset="0.56" stop-color="#b2c4fb"/><stop offset="0.63" stop-color="#b4c6fb"/><stop offset="0.95" stop-color="#aec1fb"/><stop offset="0.96" stop-color="#acbffb"/><stop offset="0.97" stop-color="#a4b9fa"/><stop offset="0.98" stop-color="#97affa"/><stop offset="0.98" stop-color="#84a0f8"/><stop offset="0.99" stop-color="#6b8cf7"/><stop offset="0.99" stop-color="#4c75f5"/><stop offset="1" stop-color="#2959f3"/><stop offset="1" stop-color="#1f51f2"/></linearGradient><linearGradient id="linear-gradient-2" x1="303.45" y1="62.59" x2="383.04" y2="62.59" gradientTransform="matrix(-1, 0, 0, 1, 527.12, 0)" gradientUnits="userSpaceOnUse"><stop offset="0.31" stop-color="#3cb9de"/><stop offset="1" stop-color="#4582ed"/></linearGradient><linearGradient id="linear-gradient-3" x1="444.3" y1="185" x2="523.89" y2="185" xlink:href="#linear-gradient-2"/><linearGradient id="linear-gradient-4" x1="221.17" y1="207.11" x2="412.13" y2="207.11" gradientTransform="matrix(-1, 0, 0, 1, 527.12, 0)" gradientUnits="userSpaceOnUse"><stop offset="0" stop-color="#1a74f2"/><stop offset="0" stop-color="#30a2d6"/><stop offset="1" stop-color="#457abf"/></linearGradient><linearGradient id="linear-gradient-5" x1="230.66" y1="207.77" x2="401.7" y2="207.77" xlink:href="#linear-gradient-4"/><linearGradient id="linear-gradient-6" x1="80.26" y1="319.32" x2="412.46" y2="319.32" gradientTransform="matrix(-1, 0, 0, 1, 527.12, 0)" gradientUnits="userSpaceOnUse"><stop offset="0.31" stop-color="#3cb9de"/><stop offset="1" stop-color="#1f51f2"/></linearGradient><linearGradient id="linear-gradient-7" x1="80.26" y1="245.65" x2="419.88" y2="245.65" xlink:href="#linear-gradient-2"/><linearGradient id="linear-gradient-8" x1="149.11" y1="341.89" x2="245.37" y2="341.89" xlink:href="#linear-gradient-4"/><linearGradient id="linear-gradient-9" x1="252.72" y1="164.21" x2="379.2" y2="164.21" xlink:href="#linear-gradient-2"/><linearGradient id="linear-gradient-10" x1="224.49" y1="252.05" x2="350.98" y2="252.05" xlink:href="#linear-gradient-2"/><linearGradient id="linear-gradient-11" x1="235.13" y1="275.38" x2="340.34" y2="275.38" gradientTransform="matrix(-1, 0, 0, 1, 527.12, 0)" gradientUnits="userSpaceOnUse"><stop offset="0" stop-color="#1a74f2"/><stop offset="0" stop-color="#50d9d6"/><stop offset="1" stop-color="#fff"/></linearGradient><linearGradient id="linear-gradient-12" x1="80.26" y1="250.12" x2="416.04" y2="250.12" gradientTransform="matrix(-1, 0, 0, 1, 527.12, 0)" gradientUnits="userSpaceOnUse"><stop offset="0" stop-color="#fff"/><stop offset="0.24" stop-color="#fdfeff"/><stop offset="0.31" stop-color="#f8faff"/><stop offset="0.5" stop-color="#b2c4fb"/><stop offset="0.63" stop-color="#b4c6fb"/><stop offset="0.95" stop-color="#aec1fb"/><stop offset="0.96" stop-color="#acbffb"/><stop offset="0.97" stop-color="#a4b9fa"/><stop offset="0.98" stop-color="#97affa"/><stop offset="0.98" stop-color="#84a0f8"/><stop offset="0.99" stop-color="#6b8cf7"/><stop offset="0.99" stop-color="#4c75f5"/><stop offset="1" stop-color="#2959f3"/><stop offset="1" stop-color="#1f51f2"/></linearGradient><linearGradient id="linear-gradient-13" x1="157.26" y1="227.19" x2="198.68" y2="227.19" xlink:href="#linear-gradient-6"/><linearGradient id="linear-gradient-14" x1="152.48" y1="209.19" x2="187.41" y2="209.19" xlink:href="#linear-gradient-6"/><linearGradient id="linear-gradient-15" x1="156.46" y1="207.27" x2="197.88" y2="207.27" xlink:href="#linear-gradient-6"/><linearGradient id="linear-gradient-16" x1="160.44" y1="196.52" x2="201.87" y2="196.52" xlink:href="#linear-gradient-6"/><linearGradient id="linear-gradient-17" x1="160.44" y1="185.76" x2="201.87" y2="185.76" xlink:href="#linear-gradient-6"/><linearGradient id="linear-gradient-18" x1="111.06" y1="244.99" x2="152.48" y2="244.99" xlink:href="#linear-gradient-6"/></defs><title>Image 2</title><g id="Layer_2" data-name="Layer 2"><g id="Layer_1-2" data-name="Layer 1"><polygon class="cls-1" points="363.49 188.16 527.12 354.99 328.38 459.98 110.4 339.06 363.49 188.16"/><path class="cls-2" d="M218.37,1.9,146,40.73a3.57,3.57,0,0,0-1.89,3.16v76.23a3.59,3.59,0,0,0,5.19,3.21l72.41-36.14a3.59,3.59,0,0,0,2-3.21V5.06A3.59,3.59,0,0,0,218.37,1.9Z"/><path class="cls-3" d="M142.79,39.3l74.27-39c1.86-1,4.7.88,6,3a3.59,3.59,0,0,0-4.63-1.09L146,41a3.59,3.59,0,0,0-1.89,3.16v76.23a3.59,3.59,0,0,0,4.17,3.54l-.1,0c-2.45,1.2-7.33-2.24-7.33-4.92V42.48A3.59,3.59,0,0,1,142.79,39.3Z"/><path class="cls-4" d="M77.53,124.31,5.12,163.14a3.61,3.61,0,0,0-1.89,3.17v76.22a3.59,3.59,0,0,0,5.2,3.21l72.4-36.13a3.59,3.59,0,0,0,2-3.21V127.48A3.59,3.59,0,0,0,77.53,124.31Z"/><path class="cls-3" d="M1.94,161.71l74.28-39c1.85-1,4.7.89,6,3a3.58,3.58,0,0,0-4.63-1.1L5.16,163.45a3.6,3.6,0,0,0-1.9,3.17v76.22a3.59,3.59,0,0,0,4.18,3.54l-.1.06C4.89,247.64,0,244.2,0,241.52V164.9A3.62,3.62,0,0,1,1.94,161.71Z"/><path class="cls-5" d="M47.07,212.57c-.45-1.78,16-55.13,16-55.13L12.83,185s30.68-5.33,30.68-4S47.07,212.57,47.07,212.57Z"/><path class="cls-6" d="M115,180.17v153l191-97.76V81.06l-187,92.7A7.15,7.15,0,0,0,115,180.17Zm10.43.76,171-84V231l-171,87.57Z"/><polygon class="cls-7" points="296.46 231.03 296.46 96.96 125.42 180.93 125.42 318.58 296.46 231.03"/><path class="cls-8" d="M274.18,221.26V135.57a6.07,6.07,0,0,0-8.74-5.45L151.09,186.25a6.08,6.08,0,0,0-3.4,5.45v88.09a6.08,6.08,0,0,0,8.84,5.41l114.35-58.54A6.09,6.09,0,0,0,274.18,221.26Z"/><polygon class="cls-9" points="305.95 235.39 446.85 307.15 252.79 403.24 114.66 333.31 305.95 235.39"/><path class="cls-10" d="M397.38,282.4l49.47,24.75L256.26,401.52a7.86,7.86,0,0,1-6.95,0L205.47,379.8Z"/><path class="cls-11" d="M306,81.06l-6.54-1.45a13.76,13.76,0,0,0-9.06,1.08L111.08,168.53a6.88,6.88,0,0,0-3.84,6.16V333.87a5.83,5.83,0,0,0,3.16,5.19l140,72.27a6.17,6.17,0,0,0,5.57,0L443.4,318.12a6.21,6.21,0,0,0,3.45-5.57v-5.4L255.69,401.8a6.42,6.42,0,0,1-5.79,0L115,333.48V179.93a6.77,6.77,0,0,1,3.76-6.06Z"/><polygon class="cls-12" points="329.62 316.79 378.01 341.2 325.5 366.99 281.75 341.08 329.62 316.79"/><g class="cls-13"><rect class="cls-5" x="160.86" y="192.83" width="0.44" height="90.04"/><rect class="cls-5" x="173.8" y="186.67" width="0.44" height="90.04"/><rect class="cls-5" x="185.83" y="179.77" width="0.44" height="90.04"/><rect class="cls-5" x="198.16" y="174.64" width="0.44" height="90.04"/><rect class="cls-5" x="210.72" y="167.14" width="0.44" height="90.04"/><rect class="cls-5" x="223.66" y="160.97" width="0.44" height="90.04"/><rect class="cls-5" x="235.69" y="154.08" width="0.44" height="90.04"/><rect class="cls-5" x="248.02" y="148.94" width="0.44" height="90.04"/><rect class="cls-5" x="260.99" y="143.98" width="0.44" height="90.04"/></g><path class="cls-5" d="M396.74,241l-.39-1.16c-2,0-3.32-.68-3.61-1.56s.47-1.7,2.26-2.39c1.51-.59,2.12-1,1.93-1.55s-.87-.9-2.33-.73a6,6,0,0,0-2.25.66l-.72-.69a7.2,7.2,0,0,1,2.33-.68l-.36-1.08,1.18-.14.37,1.13c1.79,0,3.14.55,3.45,1.48s-.71,1.63-2.49,2.3c-1.29.49-1.9,1-1.7,1.58s1.27,1,2.61.83a6.78,6.78,0,0,0,2.57-.79l.7.7a7.49,7.49,0,0,1-2.73.82l.37,1.14Z"/><path class="cls-14" d="M274.4,137.34v-1.77a6.07,6.07,0,0,0-8.74-5.45L151.31,186.25a6.08,6.08,0,0,0-3.4,5.45v7.22"/><path class="cls-15" d="M302.63,265.63V179.94a6.07,6.07,0,0,0-8.75-5.45L179.54,230.63a6.07,6.07,0,0,0-3.4,5.45v88.09a6.07,6.07,0,0,0,8.84,5.4L299.32,271A6.07,6.07,0,0,0,302.63,265.63Z"/><g class="cls-16"><path class="cls-3" d="M302.63,179.66c0-.14,0-.29,0-.43A3.11,3.11,0,0,1,302.63,179.66Z"/><path class="cls-3" d="M175.22,228.19l114.35-56.13c2.18-1.07,5.83-.07,8.72,1.79a6,6,0,0,0-4.41.37L179.54,230.35a6.08,6.08,0,0,0-3.4,5.45v88.09a6,6,0,0,0,2.54,4.93c-3.44-.89-6.86-3.94-6.86-7.09V233.64A6.08,6.08,0,0,1,175.22,228.19Z"/></g><polyline class="cls-17" points="296.46 180.99 296.46 264.68 185.83 321.89"/><path class="cls-18" d="M292,263.6s-3.31-33.9-37.47-28.43-67.74-1.82-67.74-1.82v84.07Z"/><polygon class="cls-19" points="211.16 83.38 211.16 30.2 203.87 33.7 203.87 86.98 211.16 83.38"/><polygon class="cls-19" points="197.72 90.14 198.16 45.71 190.87 49.22 190.87 93.53 197.72 90.14"/><polygon class="cls-19" points="183.1 97.01 183.43 63.24 176.15 66.75 176.15 100.74 183.1 97.01"/><polygon class="cls-19" points="169.55 103.67 169.99 59.25 162.7 62.75 162.7 107.06 169.55 103.67"/><polyline class="cls-20" points="215.84 9.47 215.84 81.06 151.02 113.12"/><polygon class="cls-21" points="305.95 88.91 446.85 307.15 250.45 411.33 111.08 176.38 305.95 88.91"/><g class="cls-22"><path class="cls-23" d="M142.32,72.88C127.9,79.23,113.9,87.23,98.9,93.23c-2,1-5,2-6,4-1,25,0,49,0,74-4,2-7,4-10.71,5.1"/><path class="cls-23" d="M226,32.43c14-7.2,28-12.2,41.1-19.88l-1.39,117.57"/><polyline class="cls-23" points="50.41 224.79 50.41 264.68 140.84 316.79 140.84 253.36 147.69 257.18 176.15 275.15"/></g><path class="cls-24" d="M333.22,212.62v1c0,5.52,9.27,10,20.71,10,6.31,0,12-1.37,15.76-3.52-1.28,5-10,9.09-20.54,9.09-11.44,0-20.71-4.83-20.71-10.35,0-2.43,1.8-4.57,4.78-6.21"/><path class="cls-25" d="M349.15,229.18c11.44,0,20.71-4.83,20.71-10.35v6.73c0,5.52-9.27,10-20.71,10s-20.71-4.47-20.71-10v-6.73c0,5.52,9.27,10.35,20.71,10.35"/><path class="cls-26" d="M353.93,217.23c11.44,0,20.71-4.83,20.71-10.36v6.73c0,5.53-9.27,10-20.71,10s-20.71-4.47-20.71-10v-6.73c0,5.53,9.27,10.36,20.71,10.36"/><path class="cls-27" d="M333.76,215.88c2.14,4.43,10.35,7.73,20.17,7.73a39,39,0,0,0,10.1-1.27c-2.89,2-8,3.63-14.88,3.63-10.9,0-17.52-4.23-17.52-7.14,0-1,.74-2,2.13-3"/><path class="cls-28" d="M349.94,215.64c11.44,0,20.72-4.48,20.72-10v-4.5c2.5,1.57,4,3.54,4,5.74,0,5.52-9.27,10.35-20.71,10.35a33.59,33.59,0,0,1-14.22-2.9,38.55,38.55,0,0,0,10.23,1.31"/><path class="cls-29" d="M349.94,209.27c11.44,0,20.72-4.84,20.72-10.36v6.73c0,5.52-9.28,10-20.72,10s-20.71-4.48-20.71-10v-6.73c0,5.52,9.28,10.36,20.71,10.36"/><path class="cls-24" d="M329.23,198.92c0,5.52,9.28,10.35,20.71,10.35s20.72-4.83,20.72-10.35-9.28-9.56-20.72-9.56-20.71,4-20.71,9.56"/><path class="cls-27" d="M349.94,206.06c10.9,0,17.53-4.23,17.53-7.14s-6.63-7.18-17.53-7.18-17.52,4.26-17.52,7.18,6.63,7.14,17.52,7.14"/><path class="cls-30" d="M346,198.51c11.44,0,20.71-4.83,20.71-10.36v6.73c0,5.53-9.27,10-20.71,10s-20.71-4.47-20.71-10v-6.73c0,5.53,9.27,10.36,20.71,10.36"/><path class="cls-24" d="M325.25,188.16c0,5.52,9.27,10.36,20.71,10.36s20.71-4.84,20.71-10.36S357.4,178.6,346,178.6s-20.71,4-20.71,9.56"/><path class="cls-27" d="M346,195.3c10.9,0,17.53-4.23,17.53-7.14S356.86,181,346,181s-17.52,4.26-17.52,7.17,6.62,7.14,17.52,7.14"/><path class="cls-31" d="M346,187.76c11.44,0,20.71-4.84,20.71-10.36v6.73c0,5.52-9.27,10-20.71,10s-20.71-4.48-20.71-10V177.4c0,5.52,9.27,10.36,20.71,10.36"/><path class="cls-32" d="M327.64,182.18a14.09,14.09,0,0,0,1.59,1.28"/><path class="cls-24" d="M325.25,177.41c0,5.52,9.27,10.35,20.71,10.35s20.71-4.83,20.71-10.35-9.27-9.56-20.71-9.56-20.71,4-20.71,9.56"/><path class="cls-27" d="M346,184.55c10.9,0,17.53-4.23,17.53-7.14s-6.63-7.17-17.53-7.17-17.52,4.25-17.52,7.17,6.62,7.14,17.52,7.14"/><path class="cls-5" d="M346.74,181l-.38-1.17c-2,0-3.32-.67-3.61-1.56s.46-1.69,2.25-2.38c1.52-.6,2.12-1,1.93-1.55s-.86-.9-2.32-.73a6.28,6.28,0,0,0-2.26.65l-.71-.68a6.65,6.65,0,0,1,2.33-.68l-.36-1.08,1.17-.14.37,1.13c1.8,0,3.15.55,3.45,1.48s-.7,1.62-2.48,2.29c-1.29.5-1.91,1-1.7,1.58s1.26,1,2.61.84a6.85,6.85,0,0,0,2.56-.79l.7.7a7.69,7.69,0,0,1-2.73.82l.37,1.13Z"/><path class="cls-33" d="M395.35,247c11.44,0,20.71-4.84,20.71-10.36v6.73c0,5.52-9.27,10-20.71,10s-20.71-4.48-20.71-10v-6.73c0,5.52,9.27,10.36,20.71,10.36"/><path class="cls-24" d="M374.64,236.64c0,5.52,9.27,10.35,20.71,10.35s20.71-4.83,20.71-10.35-9.27-9.56-20.71-9.56-20.71,4-20.71,9.56"/><path class="cls-27" d="M395.35,243.78c10.9,0,17.53-4.23,17.53-7.14s-6.63-7.17-17.53-7.17-17.52,4.25-17.52,7.17,6.62,7.14,17.52,7.14"/></g></g></svg>