<?xml version="1.0" encoding="utf-8"?>
<!-- Generator: Adobe Illustrator 22.0.0, SVG Export Plug-In . SVG Version: 6.00 Build 0)  -->
<svg version="1.1" id="Layer_1" xmlns="http://www.w3.org/2000/svg" xmlns:xlink="http://www.w3.org/1999/xlink" x="0px" y="0px"
	 viewBox="0 0 427.9 431.5" style="enable-background:new 0 0 427.9 431.5;" xml:space="preserve">
<style type="text/css">
	.st0{fill:#FFFFFF;}
	.st1{opacity:0.39;fill:url(#SVGID_1_);}
	.st2{opacity:0.14;fill:#010101;}
	.st3{fill:url(#SVGID_2_);}
	.st4{opacity:0.53;fill:none;stroke:url(#SVGID_3_);stroke-miterlimit:10;}
	.st5{fill:#272F35;}
	.st6{fill:#D18D71;}
	.st7{fill:#3075AE;}
	.st8{fill:#296AB3;}
	.st9{fill:#1367B2;}
	.st10{fill:#DFE8EA;}
	.st11{fill:#F4A982;}
	.st12{fill:#606161;}
	.st13{fill:#4C4D4D;}
	.st14{opacity:0.47;fill:#1B3E70;}
	.st15{opacity:0.47;fill:url(#SVGID_4_);}
	.st16{fill:url(#SVGID_5_);}
	.st17{opacity:0.53;fill:none;stroke:url(#SVGID_6_);stroke-miterlimit:10;}
	.st18{fill:#FBC6AD;}
	.st19{fill:#181E21;}
	.st20{fill:#283036;}
	.st21{fill:#366BB4;}
	.st22{fill:#F4AA83;}
	.st23{fill:#3C6FB6;}
	.st24{fill:#3F73B9;}
	.st25{opacity:0.53;}
	.st26{fill:url(#SVGID_7_);}
	.st27{fill:url(#SVGID_8_);}
	.st28{fill:#9BBEDD;}
	.st29{fill:#B4E3F7;}
	.st30{opacity:0.18;fill:url(#SVGID_9_);}
	.st31{opacity:0.26;fill:url(#SVGID_10_);}
	.st32{opacity:0.64;fill:#FFFFFF;}
	.st33{opacity:0.64;fill:none;stroke:#31A2D6;stroke-width:0.25;stroke-miterlimit:10;}
	.st34{opacity:0.27;fill:url(#SVGID_11_);}
	.st35{opacity:0.18;fill:url(#SVGID_12_);}
	.st36{opacity:0.18;fill:url(#SVGID_13_);}
	.st37{opacity:0.23;fill:url(#SVGID_14_);}
	.st38{opacity:0.23;fill:url(#SVGID_15_);}
</style>
<ellipse class="st0" cx="210.8" cy="227.2" rx="205.5" ry="161"/>
<linearGradient id="SVGID_1_" gradientUnits="userSpaceOnUse" x1="111.2274" y1="496.4861" x2="279.789" y2="59.9019">
	<stop  offset="0" style="stop-color:#FFFFFF"/>
	<stop  offset="0.2551" style="stop-color:#FBFDFE"/>
	<stop  offset="0.3105" style="stop-color:#F7F9FD"/>
	<stop  offset="0.4977" style="stop-color:#B6C2E4"/>
	<stop  offset="0.6279" style="stop-color:#B7C4E5"/>
	<stop  offset="0.9479" style="stop-color:#B2C0E2"/>
	<stop  offset="0.9644" style="stop-color:#B0BEE1"/>
	<stop  offset="0.9729" style="stop-color:#A9B7DE"/>
	<stop  offset="0.9796" style="stop-color:#9DABD7"/>
	<stop  offset="0.9854" style="stop-color:#8D9CCF"/>
	<stop  offset="0.9905" style="stop-color:#7A89C4"/>
	<stop  offset="0.9952" style="stop-color:#6376B9"/>
	<stop  offset="0.9995" style="stop-color:#4761AD"/>
	<stop  offset="1" style="stop-color:#435FAB"/>
</linearGradient>
<path class="st1" d="M117.1,40L48.6,301.8l8,84c2.1,22.2,22.3,38.1,44.3,35l222.7-33.3l-7.9-249.2L117.1,40z"/>
<g>
	<ellipse class="st2" cx="268.2" cy="275.6" rx="51.2" ry="24.8"/>
	<linearGradient id="SVGID_2_" gradientUnits="userSpaceOnUse" x1="202.4553" y1="255.2048" x2="333.8729" y2="255.2048">
		<stop  offset="0" style="stop-color:#AEC0E3"/>
		<stop  offset="1" style="stop-color:#99DBF9"/>
	</linearGradient>
	<ellipse class="st3" cx="268.2" cy="255.2" rx="65.7" ry="31.8"/>
	<linearGradient id="SVGID_3_" gradientUnits="userSpaceOnUse" x1="204.8412" y1="251.1481" x2="332.6798" y2="251.1481">
		<stop  offset="0" style="stop-color:#A7C2E5"/>
		<stop  offset="1" style="stop-color:#A6D8C3"/>
	</linearGradient>
	<ellipse class="st4" cx="268.8" cy="251.1" rx="63.4" ry="30.7"/>
</g>
<g>
	<path class="st5" d="M277.6,252.1c0,0-17.9,10.1-10.7,12.5c7.2,2.4,22.5-9.4,22.5-9.4l1.1-4.5L277.6,252.1z"/>
	<path class="st6" d="M211,112.3c0,0-6.3-5.4-7.8-4.9c-1.5,0.6,2.2,4.6,2.2,4.6s-11.3-1.8-13.2-0.6c-1.9,1.2-0.1,1.9-0.1,1.9
		s-2.4,1.8-1,2.7c0,0-1.9,1.4-0.6,2.1c0,0,8.3,5.2,13.4,3.7c5.1-1.5,5.1-1.5,5.1-1.5S212.3,116.5,211,112.3z"/>
	<path class="st0" d="M214.8,112.7l-4.4-0.8c0,0,1.6,5.9-2,9.7l5.9,1.9C214.3,123.6,220,114.1,214.8,112.7z"/>
	<path class="st5" d="M260.5,246.2c0,0-16,4.3-15.4,6.8c0.6,2.5,8.7,3.1,18.5,1.5c9.8-1.7,12.1-4.4,12.1-4.4l-1.1-4.4L260.5,246.2z"
		/>
	<path class="st7" d="M272.5,165l2.3,85.7c0,0,7.1,3.2,15.7,0.1l3-86.8L272.5,165z"/>
	<path class="st7" d="M254.9,168.6c0,0,5.6,66.3,5.6,77.6c0,0,8.5,1.9,15.2-1v-76.5H254.9z"/>
	<g>
		<path class="st8" d="M281.4,92c0,0,9.4,7.5,10.9,11.5c1.6,4.1,7.2,29.6,5.6,44.3c0,0-1.6,3.4-4.7,6.6
			c-3.1,3.1-23.1,15.6-23.1,15.6s3.3-6.2-5.4-5.6l-8.5,1.7l-4.5-0.2v-41.5c0,0-2.5,5.9-7.5,6.6s-35-7.9-35-7.9s6-5.8,4.1-12.1
			c0,0,23.7,4.1,27.1,3.7c3.4-0.3,8.7-22.8,15.3-25C262.4,87.7,281.4,92,281.4,92z"/>
		<path class="st9" d="M292.8,150.9l1.2,18c0,0-16.3,3.9-29.7,1.1L292.8,150.9z"/>
	</g>
	<path class="st6" d="M276.6,82.6l2.7,9c0,0-8.8,8.6-13.2,8c-4.4-0.6,0.2-7.3,0.2-7.3L276.6,82.6z"/>
	<path class="st6" d="M270.5,166.2c0,0-0.5-7.8-3.8-7.5s-1.1,2.8-0.5,3.9c3.6,5.8-15,5.1-18.7,5.8c-3.7,0.6,10.7,3.4,16.7,1.7
		C270.3,168.3,270.5,166.2,270.5,166.2z"/>
	<path class="st0" d="M230.1,167.1c0,0,26.3,4.4,36-1.8c0,0,1.3-0.9,0.2-2.8s-1.1-1.9-1.1-1.9s-18.2,9.4-40.2,0
		C224.9,160.7,223.7,166.4,230.1,167.1z"/>
	<path class="st10" d="M269.8,97.7l-5.6-0.2L263,108c0,0,9.4-7.1,12.6-11.4c3.2-4.3,0,0,0,0L269.8,97.7z"/>
	<path class="st11" d="M256.2,67.6c-0.9,0.3-1.5,1.4-1.5,2.5c0,4.6,0.3,16.3,2.8,19.6c3.1,4.2,6.9,4.9,9.4,3.4S278,88.3,279.3,77
		C279.3,77,271.3,61.9,256.2,67.6z"/>
	<path class="st5" d="M256.6,61c0,0-6.6,6-1.9,8.9c2.6,1.6,12.2-0.1,15.4,1.4c3.2,1.5,5.4,5.6,5.4,5.6s0.5-2.3,2.6-0.9
		c2.1,1.5,0.1,5.7-1.2,5.1l0.3,1.5c0,0,1.7-0.1,2.4-1.9c0.7-1.9,1.8-9.8,0-14.5C279.4,66.2,270.6,49.6,256.6,61z"/>
	<path class="st0" d="M279.3,91.6c0,0-5.7,8.7-9.9,10.4l-1.6-4.2L279.3,91.6z"/>
	<path class="st0" d="M267.9,97.8l-2.5-4c0,0-1.1,1.7-1.2,3.2c-0.1,1.4-0.2,2.2-0.2,2.2L267.9,97.8z"/>
	<path class="st12" d="M267.9,97.8l-3.2,1.2c0,0,0.2,1.3,1.6,1.7s2.7,0,2.7,0L267.9,97.8z"/>
	<polygon class="st13" points="266,100.6 263.5,103.6 263,108 267.6,104.3 267.6,100.9 	"/>
	<path class="st0" d="M268.6,159.6c0,0,2.4-0.9,2.4-0.9c0.5-0.2,2.2,3.3,2.3,3.7c0.6,1.5,0.8,3.1,0.6,4.7c-0.2,1.4-1.3,2.3-2.7,2.1
		c-0.4,0-0.7-0.2-1-0.4c-0.1-0.1-0.8-1-0.9-1C269.3,167.8,271.9,167.6,268.6,159.6z"/>
</g>
<g>
	<path class="st14" d="M311,133.8L128.5,39.1c-3.8-2-8.2-1-11.4,0.9c2.3-0.4,5.1-0.7,7.5,0.6l182.5,94.6c3.9,2,6.2,6,6.1,10.3
		l-2.4,107.9c-0.1,4.2-2.3,7.6-5.5,9.5c5-0.9,9.3-5.2,9.4-11l2.4-107.9C317.2,139.8,314.8,135.8,311,133.8z"/>
	<linearGradient id="SVGID_4_" gradientUnits="userSpaceOnUse" x1="286.0238" y1="159.4293" x2="80.5987" y2="140.3134">
		<stop  offset="0.3068" style="stop-color:#3EBADE"/>
		<stop  offset="1" style="stop-color:#557CBE"/>
	</linearGradient>
	<path class="st15" d="M125.5,41L308,135.7c3.9,2,6.2,6,6.1,10.3l-2.4,107.9c-0.2,8.4-9,13.7-16.5,9.9L114,172.4
		c-3.9-2-6.3-5.9-6.3-10.3L108.9,51C108.9,42.5,117.9,37.1,125.5,41z"/>
</g>
<ellipse class="st2" cx="127.6" cy="389.4" rx="51.2" ry="24.8"/>
<linearGradient id="SVGID_5_" gradientUnits="userSpaceOnUse" x1="61.9211" y1="368.981" x2="193.3386" y2="368.981">
	<stop  offset="0" style="stop-color:#AEC0E3"/>
	<stop  offset="1" style="stop-color:#99DBF9"/>
</linearGradient>
<ellipse class="st16" cx="127.6" cy="369" rx="65.7" ry="31.8"/>
<linearGradient id="SVGID_6_" gradientUnits="userSpaceOnUse" x1="64.307" y1="364.9243" x2="192.1455" y2="364.9243">
	<stop  offset="0" style="stop-color:#A7C2E5"/>
	<stop  offset="1" style="stop-color:#A6D8C3"/>
</linearGradient>
<ellipse class="st17" cx="128.2" cy="364.9" rx="63.4" ry="30.7"/>
<path class="st18" d="M172.6,203.2c0,0,4.7-7.8,9.2-7.8c4.5,0,4.4,3.1,2.4,6.8s-7.7,8.6-7.7,8.6L172.6,203.2z"/>
<path class="st19" d="M112.4,352.3c-1-1.7-2.2,8.9,0,9.7c2.2,0.8,8.3,1,11.1,0c2.8-1,18.2-2.6,19.9-5.3c1.8-2.8,1.6-10.5-15-8.5
	L112.4,352.3z"/>
<path class="st20" d="M121,356.2c-1-1.7-2.2,8.9,0,9.7c2.2,0.8,8.3,1,11.1,0c2.8-1,18.2-2.6,19.9-5.3c1.8-2.8,1.6-10.5-15-8.5
	L121,356.2z"/>
<path class="st21" d="M105.5,265.4c0,0,0.8,5.5,2.4,10.5c1.6,4.9,0,25.8-1.2,31.3c-1.2,5.4-1.6,44,1.8,49.3c0,0,17.1-0.1,19.1-4.7
	c0,0-2.2-54.2-2.8-64.6c-0.6-10.5-2.4-21.7-2.4-21.7l-5.9-14.4l-7.5-1.4L105.5,265.4z"/>
<path class="st8" d="M143.2,269.6c0,0,0.2,28.1-3.4,42.9c-3.6,14.8-1.4,38.9-1.4,38.9s2,6.9-19,4.7c0,0-0.7-31.6,1.3-50.1
	c2-18.6-5.7-40.5-5.7-40.5L143.2,269.6z"/>
<path class="st22" d="M133,152.9c0,0,0.7,5.6,0.6,11.2c-0.1,5.6,1,10-1.7,10.9c-2.7,0.9-4,0-4,0s-2,4.3,0,7.8l0.7,1.6
	c0,0-7-2.3-10.5-2.3s-8.5-3.9-8.5-3.9l1.8-5.2L133,152.9z"/>
<path class="st20" d="M110.6,174.4c0,0-0.8-5.5-2.8-7.1c-2-1.6-5.7-11.3,1.4-17.2c7.1-5.9,15.4-6.5,18.4-4.9c3,1.6,6.3,6.4,5.1,8.5
	c-1.2,2.1-1.6,2.1-1.4,3.7c0.2,1.6,0,3,0,3.9s0,3-0.4,3.8c-0.4,0.8-3.2,1.2-3.2,1.2s-3.6,2.2-3.9,6.1
	C123.4,176.4,113.2,177.6,110.6,174.4z"/>
<path class="st23" d="M109.5,178.2c0,0,2.9,3.3,8.5,3.9c5.6,0.7,9.5,1,10.5,2.3c1,1.3,9.9,5.2,11,6.8s3.7,18.9,3.7,35.7
	s2.9,43.1,2.9,43.1s-14,5.8-32.1,0l-2.1-17.1l-0.5,14.8c0,0-4.5-0.9-7.9-2.2v-12.4l-2.9,1.1c0,0-8.4-36.9-7.6-52.1
	c0.8-15.3,3.4-18.4,7.6-21.6C104.7,177.2,109.5,178.2,109.5,178.2z"/>
<path class="st24" d="M157.3,213.9c0-0.8-5.2-4.6-10.3-10.9c-3-3.8-6.8-17.5-14.1-9.1c-4.9,5.7,5.9,26.5,10.2,31.4
	c4.2,4.9,8.4,10.7,14.2,7.8s20.1-22.1,20.1-22.1s-1.9-7.9-6.2-8L157.3,213.9z"/>
<g class="st25">
	
		<linearGradient id="SVGID_7_" gradientUnits="userSpaceOnUse" x1="58.7784" y1="244.3652" x2="333.7649" y2="244.3652" gradientTransform="matrix(1.0091 -3.643293e-02 -3.643293e-02 1.1459 24.7455 -99.0851)">
		<stop  offset="0" style="stop-color:#A7C2E5"/>
		<stop  offset="1" style="stop-color:#A6D8C3"/>
	</linearGradient>
	<path class="st26" d="M319.6,175.5c-0.1,0.4-0.2,0.7-0.3,1.1c21,16,32.9,31.8,30.7,43.8c-4.6,25.4-69.4,25-144.4-0.8
		c-75-25.9-132.3-67.6-127.7-93c1.8-9.9,12.7-15.9,29.8-18c0-0.4,0-0.8,0-1.1c-18.1,2.2-28.8,8.7-30.6,18.8
		c-2.3,12.8,9.8,29.6,34.2,47.5c24.2,17.7,57.6,34.4,94.1,47c36.5,12.6,71.7,19.5,99.1,19.6h0.4c27.3,0,43.7-7,46-19.7
		C353,208.5,341.9,192.5,319.6,175.5z"/>
</g>
<g class="st25">
	
		<linearGradient id="SVGID_8_" gradientUnits="userSpaceOnUse" x1="57.9111" y1="227.4673" x2="330.5031" y2="227.4673" gradientTransform="matrix(1.0091 -3.643293e-02 -3.643293e-02 1.1459 24.7455 -99.0851)">
		<stop  offset="0" style="stop-color:#A7C2E5"/>
		<stop  offset="1" style="stop-color:#A6D8C3"/>
	</linearGradient>
	<path class="st27" d="M317.2,156.2c-0.1,0.4-0.2,0.7-0.3,1.1c20.9,15.8,32.6,31.4,30.4,43.4c-4.6,25.2-68.8,24.8-143.1-0.8
		C129.8,174.3,73,133,77.6,107.9c1.8-9.8,12.6-15.7,29.5-17.8c0-0.4,0-0.8,0-1.1c-17.9,2.2-28.6,8.6-30.4,18.6
		c-2.3,12.6,9.8,29.3,33.9,47c24,17.5,57.1,34.1,93.3,46.5c36.2,12.4,71,19.3,98.2,19.4h0.4c27.1,0,43.3-6.9,45.6-19.5
		C350.3,188.9,339.4,173.1,317.2,156.2z"/>
</g>
<polyline class="st28" points="195.9,383.3 195.8,383.4 191.9,386.2 195.9,387.6 "/>
<g>
	<linearGradient id="SVGID_9_" gradientUnits="userSpaceOnUse" x1="174.5849" y1="151.7653" x2="205.5849" y2="151.7653">
		<stop  offset="0.3068" style="stop-color:#3EBADE"/>
		<stop  offset="1" style="stop-color:#557CBE"/>
	</linearGradient>
	<path class="st30" d="M176,115.3l29,14.6c0.3,0.2,0.6,0.5,0.6,0.9v56.6c0,0.7-0.8,1.2-1.5,0.9l-29-14.4c-0.3-0.2-0.6-0.5-0.6-0.9
		v-56.7C174.6,115.4,175.4,114.9,176,115.3z"/>
	<linearGradient id="SVGID_10_" gradientUnits="userSpaceOnUse" x1="169.2423" y1="155.4694" x2="200.2423" y2="155.4694">
		<stop  offset="0.3068" style="stop-color:#3EBADE"/>
		<stop  offset="1" style="stop-color:#557CBE"/>
	</linearGradient>
	<path class="st31" d="M170.7,119l29,14.6c0.3,0.2,0.6,0.5,0.6,0.9v56.6c0,0.7-0.8,1.2-1.5,0.9l-29-14.4c-0.3-0.2-0.6-0.5-0.6-0.9
		v-56.7C169.2,119.1,170,118.6,170.7,119z"/>
	<path class="st32" d="M164.7,122.2l29,14.6c0.3,0.2,0.6,0.5,0.6,0.9v56.6c0,0.7-0.8,1.2-1.5,0.9l-29-14.4c-0.3-0.2-0.6-0.5-0.6-0.9
		v-56.7C163.2,122.3,164,121.8,164.7,122.2z"/>
</g>
<polyline class="st33" points="167.3,133 167.3,176.2 190.1,187.6 "/>
<linearGradient id="SVGID_11_" gradientUnits="userSpaceOnUse" x1="167.7262" y1="164.1407" x2="188.539" y2="164.1407">
	<stop  offset="0.3068" style="stop-color:#3EBADE"/>
	<stop  offset="1" style="stop-color:#557CBE"/>
</linearGradient>
<path class="st34" d="M167.7,142v34.2l20.8,10C188.5,186.3,190.2,163,167.7,142z"/>
<linearGradient id="SVGID_12_" gradientUnits="userSpaceOnUse" x1="365.8601" y1="129.641" x2="395.4157" y2="129.641">
	<stop  offset="0.3068" style="stop-color:#3EBADE"/>
	<stop  offset="1" style="stop-color:#557CBE"/>
</linearGradient>
<path class="st35" d="M367.9,120.5l22.6-10.5c2.3-1.1,5,0.6,5,3.2v22.1c0,1.3-0.8,2.6-2,3.1l-22.6,10.9c-2.3,1.1-5-0.6-5-3.1v-22.5
	C365.9,122.3,366.6,121,367.9,120.5z"/>
<linearGradient id="SVGID_13_" gradientUnits="userSpaceOnUse" x1="351.0822" y1="174.0047" x2="380.6379" y2="174.0047">
	<stop  offset="0.3068" style="stop-color:#3EBADE"/>
	<stop  offset="1" style="stop-color:#557CBE"/>
</linearGradient>
<path class="st36" d="M353.1,164.8l22.6-10.5c2.3-1.1,5,0.6,5,3.2v22.1c0,1.3-0.8,2.6-2,3.1l-22.6,10.9c-2.3,1.1-5-0.6-5-3.1V168
	C351.1,166.6,351.9,165.4,353.1,164.8z"/>
<linearGradient id="SVGID_14_" gradientUnits="userSpaceOnUse" x1="78.0181" y1="23.8474" x2="107.5737" y2="23.8474">
	<stop  offset="0.3068" style="stop-color:#3EBADE"/>
	<stop  offset="1" style="stop-color:#557CBE"/>
</linearGradient>
<path class="st37" d="M80,14.7l22.6-10.5c2.3-1.1,5,0.6,5,3.2v22.1c0,1.3-0.8,2.6-2,3.1L83,43.5c-2.3,1.1-5-0.6-5-3.1V17.8
	C78,16.5,78.8,15.3,80,14.7z"/>
<linearGradient id="SVGID_15_" gradientUnits="userSpaceOnUse" x1="63.2402" y1="68.211" x2="92.7959" y2="68.211">
	<stop  offset="0.3068" style="stop-color:#3EBADE"/>
	<stop  offset="1" style="stop-color:#557CBE"/>
</linearGradient>
<path class="st38" d="M65.3,59l22.6-10.5c2.3-1.1,5,0.6,5,3.2v22.1c0,1.3-0.8,2.6-2,3.1L68.2,87.8c-2.3,1.1-5-0.6-5-3.1V62.2
	C63.2,60.9,64,59.6,65.3,59z"/>
</svg>
