<svg xmlns="http://www.w3.org/2000/svg" xmlns:xlink="http://www.w3.org/1999/xlink" width="1689" height="858" viewBox="0 0 1689 858"><defs><path id="oqqpa" d="M1358.28 2223.63c68.09 0 123.28 54.92 123.28 122.68S1426.36 2469 1358.28 2469c-68.09 0-123.28-54.93-123.28-122.69 0-67.76 55.2-122.68 123.28-122.68z"/><path id="oqqpb" d="M-13 2539c83.4 0 151 67.38 151 150.5S70.4 2840-13 2840s-151-67.38-151-150.5S-96.4 2539-13 2539z"/><path id="oqqpc" d="M1351.44 2096.26l128.33 62.79c30.33 14.84 42.83 51.34 27.9 81.52l-50.16 101.4c-14.92 30.18-51.62 42.6-81.96 27.76l-128.32-62.79c-30.34-14.84-42.83-51.34-27.9-81.51l50.15-101.41c14.93-30.18 51.62-42.6 81.96-27.76z"/><path id="oqqpf" d="M1239 2033a10 10 0 1 1 0 20 10 10 0 0 1 0-20z"/><path id="oqqpg" d="M1073.5 2273a8.5 8.5 0 1 1 0 17 8.5 8.5 0 0 1 0-17z"/><path id="oqqph" d="M1046.5 2085a5.5 5.5 0 1 1 0 11 5.5 5.5 0 0 1 0-11z"/><path id="oqqpj" d="M1122.46 2755.78a10 10 0 1 1 7.78 18.42 10 10 0 0 1-7.78-18.42z"/><path id="oqqpk" d="M969.66 2876.04a5.5 5.5 0 1 1 4.27 10.13 5.5 5.5 0 0 1-4.27-10.13z"/><linearGradient id="oqqpd" x1="1363.98" x2="1363.02" y1="2376" y2="2089.99" gradientUnits="userSpaceOnUse"><stop offset="0" stop-color="#0073ff"/><stop offset="1" stop-color="#07a8f7"/></linearGradient><clipPath id="oqqpe"><use fill="#fff" xlink:href="#oqqpa"/></clipPath><clipPath id="oqqpi"><use fill="#fff" xlink:href="#oqqpb"/></clipPath></defs><g><g transform="translate(165 -2031)"><g opacity=".1"><use fill="url(#oqqpd)" xlink:href="#oqqpc"/></g><g opacity=".04"><use fill="#fff" fill-opacity="0" stroke="#07a8f7" stroke-miterlimit="50" stroke-width="60" clip-path="url(&quot;#oqqpe&quot;)" xlink:href="#oqqpa"/></g><g opacity=".2"><use fill="#068ff6" xlink:href="#oqqpf"/></g><g opacity=".04"><use fill="#068ff6" xlink:href="#oqqpg"/></g><g opacity=".1"><use fill="#068ff6" xlink:href="#oqqph"/></g><g opacity=".04"><use fill="#fff" fill-opacity="0" stroke="#07a8f7" stroke-miterlimit="50" stroke-width="60" clip-path="url(&quot;#oqqpi&quot;)" xlink:href="#oqqpb"/></g></g><g opacity=".1" transform="translate(165 -2031)"><use fill="#068ff6" xlink:href="#oqqpj"/></g><g opacity=".1" transform="translate(165 -2031)"><use fill="#068ff6" xlink:href="#oqqpk"/></g></g></svg>